<?xml version="1.0" encoding="utf-8"?>
<!-- Generator: Adobe Illustrator 27.5.0, SVG Export Plug-In . SVG Version: 6.00 Build 0)  -->
<svg version="1.1" id="Layer_1" xmlns="http://www.w3.org/2000/svg" xmlns:xlink="http://www.w3.org/1999/xlink" x="0px" y="0px"
	 viewBox="0 0 256 312.169" style="enable-background:new 0 0 256 312.169;" xml:space="preserve">
<g>
	<g>
		<path style="fill:#101656;" d="M96.835,191.242c-0.814-0.045-1.645,0-2.452,0.039c-0.069,0.002-0.359,0.051-0.729,0.109
			c-0.043,0-0.091,0-0.131,0c-3.759,0.029-7.557,0.607-11.326,0.721c-3.784,0.115-7.567,0.236-11.349,0.432
			c-6.17,0.314-12.366,0.566-18.541,0.932c-0.595,0.107-1.191,0.201-1.792,0.244c-0.685,0.049-1.784,0.182-2.375-0.283
			c-0.819-0.643-0.51-1.871-0.118-2.922c0.248-1.732,0.588-3.414,0.975-5.141c0.399-1.787,0.552-3.621,1.023-5.394
			c0.518-1.945,0.926-3.904,1.399-5.858c0.129-0.531,0.229-1.791,0.705-2.348c1.684-0.363,2.785-1.588,2.327-3.625
			c-0.246-1.092-0.892-2.07-1.625-2.906c-0.108-0.125-0.465-0.457-0.875-0.814c-4.416-4.738-11.405-7.361-17.569-8.348
			c-1.859-0.297-3.759-0.498-5.643-0.346c-1.618,0.131-4.131,0.213-5.313,1.557c-1.364,1.551,0.25,3.434,1.446,4.617
			c0.005,0.02,0.01,0.033,0.016,0.055c0.246,0.934,0.235,1.832,0.126,2.781c-0.196,1.717-0.575,3.428-0.913,5.123
			c-0.69,3.473-1.393,6.939-1.956,10.438c-1.131,7.021-2.13,14.131-2.424,21.242c-0.117,2.824-0.508,5.748-0.39,8.592
			c0.335,2.613,1.222,5.234,2.539,7.605c1.998,2.984,4.792,4.918,7.974,6.227c0.027,0.029,0.056,0.055,0.086,0.07
			c2.126,1.09,4.598,1.396,6.881,2.049c2.323,0.666,15.739,0.918,17.953,0.748c2.874-0.219,5.758-0.281,8.638-0.406
			c4.801-0.342,9.573-1.096,14.32-1.855c1.707-0.273,3.411-0.586,5.104-0.951c-0.006,0.018-0.013,0.031-0.019,0.047
			c0.148-0.043,0.296-0.092,0.443-0.143c0.479-0.752,0.965-1.5,1.417-2.27c0.656-1.465,1.325-2.924,1.952-4.402
			c1.486-3.5,2.88-7.041,4.367-10.541c0.909-2.139,1.867-4.275,2.752-6.438c0.954-2.889,4.051-6.096,5.271-8.885
			C98.902,190.941,96.94,191.299,96.835,191.242z"/>
		<path style="fill:#6EBE44;" d="M97.787,192.217c-0.253,0.787-3.745,5.139-4.051,5.906c-1.264,3.176-2.691,6.297-4.036,9.441
			c-1.413,3.303-2.741,6.645-4.158,9.947c-0.722,1.684-1.501,3.34-2.239,5.014c-2.23,0.463-4.46,0.895-6.714,1.236
			c-4.179,0.637-8.339,1.203-12.533,1.584c-4.045,0.08-7.845,0.65-11.895,0.67c-2.706,0.012-8.774,0.174-12.388-0.533
			c-1.766-0.195-3.535-0.424-5.266-0.785c-0.854-0.213-1.709-0.432-2.561-0.658c-1.131-0.35-2.237-0.779-3.304-1.326
			c-0.732-0.375-1.466-0.783-2.175-1.234c-0.039-0.043-0.08-0.084-0.119-0.129c-0.809-0.582-1.521-1.297-2.179-2.15
			c-0.167-0.215-0.331-0.43-0.494-0.645c-1.017-1.109-1.923-2.303-2.454-3.824c-0.698-2.004-0.86-4.043-0.988-6.104
			c0.037-0.846,0.092-1.691,0.139-2.541c0.171-3.119,0.231-6.242,0.534-9.355c0.627-6.438,1.469-12.865,2.607-19.232
			c0.584-3.264,1.333-6.498,1.88-9.768c0.203-1.221,0.488-2.486,0.399-3.732c-0.047-0.648-0.287-1.221-0.456-1.811
			c0.15-0.055,0.184-0.328,0.031-0.547c-0.683-0.986-2.686-2.887-0.807-3.881c1.588-0.84,3.424-1.109,5.211-1.137
			c2.859-0.043,5.663,0.424,8.424,1.143c5.477,1.424,10.92,4.188,14.743,8.445c0.008,0.01,0.017,0.016,0.025,0.025
			c0.43,0.639,0.725,1.336,0.765,2.094c0.116,2.215-1.501,2.441-3.211,2.785c-0.395,0.08,0.082,0.768,0.354,0.773
			c0.142,0.002,0.28,0,0.417-0.008c-0.648,1.465-0.839,3.068-1.262,4.607c-0.544,1.973-1.109,3.924-1.417,5.951
			c-0.31,2.043-0.957,4.016-1.255,6.057c-1.22,8.358-1.27,17.209-4.24,25.182c-0.938,1.66-2.029,3.238-2.925,4.92
			c-0.104,0.193,0.268,0.664,0.453,0.475c1.544-1.588,2.92-3.842,3.852-5.848c0.971-2.09,1.681-4.279,2.25-6.51
			c0.161-0.633,0.291-1.266,0.397-1.902c0.094,0.771,0.178,1.543,0.209,2.324c0.13,3.232-0.438,5.85-1.219,8.953
			c-0.052,0.207,0.38,0.654,0.517,0.383c2.288-4.535,1.384-9.154,0.772-13.861c0.247-2.684,0.201-5.391,0.32-8.094
			c0.002-0.002,0.004-0.002,0.005-0.002c0.103-0.057,0.208-0.107,0.312-0.162c2.689,0.258,5.428,0.027,8.116-0.094
			c3.645-0.162,7.284-0.398,10.927-0.604c7.137-0.398,14.304-0.4,21.43-0.934c1.719-0.129,3.441-0.381,5.161-0.459
			C95.889,192.164,98.036,191.439,97.787,192.217z"/>
		<path style="fill:#293791;" d="M97.787,192.217c-0.253,0.787-3.745,5.139-4.051,5.906c-1.264,3.176-2.691,6.297-4.036,9.441
			c-1.413,3.303-2.741,6.645-4.158,9.947c-0.722,1.684-1.501,3.34-2.239,5.014c-2.23,0.463-4.46,0.895-6.714,1.236
			c-4.179,0.637-8.339,1.203-12.533,1.584c-4.045,0.08-7.845,0.65-11.895,0.67c-2.706,0.012-8.774,0.174-12.388-0.533
			c-1.766-0.195-3.535-0.424-5.266-0.785c-0.854-0.213-1.709-0.432-2.561-0.658c-1.131-0.35-2.237-0.779-3.304-1.326
			c-0.732-0.375-1.466-0.783-2.175-1.234c-0.039-0.043-0.08-0.084-0.119-0.129c-0.809-0.582-1.521-1.297-2.179-2.15
			c-0.167-0.215-0.331-0.43-0.494-0.645c-1.017-1.109-1.923-2.303-2.454-3.824c-0.698-2.004-0.86-4.043-0.988-6.104
			c0.037-0.846,0.092-1.691,0.139-2.541c0.171-3.119,0.231-6.242,0.534-9.355c0.627-6.438,1.469-12.865,2.607-19.232
			c0.584-3.264,1.333-6.498,1.88-9.768c0.203-1.221,0.488-2.486,0.399-3.732c-0.047-0.648-0.287-1.221-0.456-1.811
			c0.15-0.055,0.184-0.328,0.031-0.547c-0.683-0.986-2.686-2.887-0.807-3.881c1.588-0.84,3.424-1.109,5.211-1.137
			c2.859-0.043,5.663,0.424,8.424,1.143c5.477,1.424,10.92,4.188,14.743,8.445c0.008,0.01,0.017,0.016,0.025,0.025
			c0.43,0.639,0.725,1.336,0.765,2.094c0.116,2.215-1.501,2.441-3.211,2.785c-0.395,0.08,0.082,0.768,0.354,0.773
			c0.142,0.002,0.28,0,0.417-0.008c-0.648,1.465-0.839,3.068-1.262,4.607c-0.544,1.973-1.109,3.924-1.417,5.951
			c-0.31,2.043-0.957,4.016-1.255,6.057c-1.22,8.358-1.27,17.209-4.24,25.182c-0.938,1.66-2.029,3.238-2.925,4.92
			c-0.104,0.193,0.268,0.664,0.453,0.475c1.544-1.588,2.92-3.842,3.852-5.848c0.971-2.09,1.681-4.279,2.25-6.51
			c0.161-0.633,0.291-1.266,0.397-1.902c0.094,0.771,0.178,1.543,0.209,2.324c0.13,3.232-0.438,5.85-1.219,8.953
			c-0.052,0.207,0.38,0.654,0.517,0.383c2.288-4.535,1.384-9.154,0.772-13.861c0.247-2.684,0.201-5.391,0.32-8.094
			c0.002-0.002,0.004-0.002,0.005-0.002c0.103-0.057,0.208-0.107,0.312-0.162c2.689,0.258,5.428,0.027,8.116-0.094
			c3.645-0.162,7.284-0.398,10.927-0.604c7.137-0.398,14.304-0.4,21.43-0.934c1.719-0.129,3.441-0.381,5.161-0.459
			C95.889,192.164,98.036,191.439,97.787,192.217z"/>
		<path style="fill:#293791;" d="M21.026,198.201c0.972-6.367,2.13-12.75,3.448-19.055c0.666-3.184,1.756-6.309,2.383-9.486
			c0.247-1.25,0.274-2.838,1.209-3.805c0.803-0.832,2.98,0.68,3.808,0.9c1.474,0.395,2.978,0.779,4.497,0.986
			c-1.552-0.66-3.076-1.373-4.551-2.139c-2.273-1.18-6.302-3.611-6.313-6.6c-0.003-0.809,0.271-1.43,0.737-1.906
			c-0.581,0.166-1.146,0.379-1.682,0.662c-1.879,0.994,0.124,2.895,0.807,3.881c0.152,0.219,0.119,0.492-0.031,0.547
			c0.169,0.59,0.409,1.162,0.456,1.811c0.089,1.246-0.196,2.512-0.399,3.732c-0.547,3.27-1.296,6.504-1.88,9.768
			c-1.139,6.367-1.98,12.795-2.607,19.232c-0.148,1.512-0.236,3.027-0.31,4.543C20.728,200.236,20.872,199.209,21.026,198.201z"/>
		<path style="opacity:0.4;fill:#293791;" d="M93.694,192.264c-0.062,0.002-0.123,0.01-0.185,0.012
			c-0.118,0.063-0.241,0.115-0.358,0.18c-1.722,0.955-3.31,2.275-4.699,3.67c-2.718,2.727-4.92,6.072-7.149,9.201
			c-1.756,2.461-3.367,5.383-5.698,7.367c-2.181,1.857-4.723,2.414-7.525,2.697c-2.946,0.299-5.974,0.52-8.938,0.486
			c-2.227-0.023-4.453-0.281-6.33-1.574c-2.148-1.482-2.939-4.484-3.471-6.877c-0.514-2.313-1.167-4.584-1.777-6.869
			c-0.032,0.686-0.076,1.371-0.139,2.055c0.611,4.707,1.516,9.326-0.772,13.861c-0.137,0.271-0.568-0.176-0.517-0.383
			c0.781-3.104,1.349-5.721,1.219-8.953c-0.031-0.781-0.115-1.553-0.209-2.324c-0.106,0.637-0.236,1.27-0.397,1.902
			c-0.569,2.23-1.279,4.42-2.25,6.51c-0.932,2.006-2.308,4.26-3.852,5.848c-0.186,0.189-0.557-0.281-0.453-0.475
			c0.895-1.682,1.987-3.26,2.925-4.92c2.971-7.973,3.021-16.824,4.24-25.182c0.298-2.041,0.945-4.014,1.255-6.057
			c0.308-2.027,0.873-3.979,1.417-5.951c0.423-1.539,0.613-3.143,1.262-4.607c-0.137,0.008-0.275,0.01-0.417,0.008
			c-0.272-0.006-0.749-0.693-0.354-0.773c1.71-0.344,3.327-0.57,3.211-2.785c-0.039-0.758-0.335-1.455-0.765-2.094
			c-0.009-0.01-0.018-0.016-0.025-0.025c-3.823-4.258-9.267-7.021-14.743-8.445c-2.761-0.719-5.564-1.186-8.424-1.143
			c-0.783,0.014-1.576,0.076-2.354,0.207c-0.275,0.475-0.434,1.012-0.406,1.566c0.067,1.352,0.912,2.465,1.868,3.363
			c1.52,1.428,3.259,2.676,5.067,3.715c2.041,1.17,4.202,2.162,6.52,2.633c2.336,0.475,4.723,0.563,7.071,0.959
			c0.375,0.064,0.287,0.566,0,0.674c-3.638,1.367-7.503,1.01-11.28,0.582c-1.686-0.191-3.476-0.408-5.146-0.914
			c2.097,1.436,4.76,2.176,6.955,3.496c2.682,1.613,4.084,3.857,4.582,6.932c0.717,4.426,0.133,9.16-0.467,13.564
			c-0.642,4.711-1.205,9.543-2.262,14.18c-0.737,3.236-1.871,7.592-4.939,9.469c-3.07,1.877-6.917,1.256-9.797-0.729
			c-2.169-1.492-3.678-3.373-4.774-5.475c0.139,1.307,0.365,2.604,0.812,3.885c0.531,1.521,1.438,2.715,2.454,3.824
			c0.163,0.215,0.327,0.43,0.494,0.645c0.657,0.854,1.37,1.568,2.179,2.15c0.039,0.045,0.08,0.086,0.119,0.129
			c0.709,0.451,1.443,0.859,2.175,1.234c1.066,0.547,2.173,0.977,3.304,1.326c0.852,0.227,1.706,0.445,2.561,0.658
			c1.73,0.361,3.5,0.59,5.266,0.785c3.614,0.707,9.682,0.545,12.388,0.533c4.05-0.02,7.85-0.59,11.895-0.67
			c4.194-0.381,8.354-0.947,12.533-1.584c2.254-0.342,4.483-0.773,6.714-1.236c0.738-1.674,1.518-3.33,2.239-5.014
			c1.417-3.303,2.745-6.645,4.158-9.947c1.345-3.145,2.772-6.266,4.036-9.441c0.306-0.768,3.798-5.119,4.051-5.906
			C98.036,191.439,95.889,192.164,93.694,192.264z"/>
		<path style="fill:#293791;" d="M48.061,194.354c-0.104,0.055-0.209,0.105-0.312,0.162c-0.001,0-0.003,0-0.005,0.002
			c-0.078,1.764-0.091,3.527-0.155,5.287c0.058-0.229,0.116-0.459,0.172-0.688c0.306-1.264,0.91-2.266,2.291-2.471
			c4.937-0.734,9.993-0.959,14.968-1.361c5.6-0.455,11.215-0.801,16.798-1.453c2.879-0.338,5.746-0.76,8.631-1.051
			c2.371-0.238,4.907-0.006,7.267-0.402c0.031-0.063,0.059-0.119,0.072-0.162c0.249-0.777-1.898-0.053-4.093,0.047
			c-1.72,0.078-3.442,0.33-5.161,0.459c-7.126,0.533-14.293,0.535-21.43,0.934c-3.643,0.205-7.282,0.441-10.927,0.604
			C53.488,194.381,50.75,194.611,48.061,194.354z"/>
	</g>
	<g>
		<g>
			<g>
				<path style="fill:#CD7E5B;" d="M52.352,131.863c-1.23-1.641-2.965-2.855-4.385-4.32c-1.75-1.807-3.188-3.715-4.536-5.836
					c-2.767-4.355-3.244-9.508-2.989-14.541c0.123-2.422,0.501-4.832,0.891-7.225c0.243-1.49,0.586-2.965,0.993-4.418
					c0.296-1.063,0.552-2.32,1.22-3.242c0.73-0.508,1.388-1.07,1.87-1.713c1.174-1.563,0.216-2.895-1.479-3.188
					c-2.414-0.418-4.976,0.508-7.072,1.613c-0.904,0.475-3.039,1.693-4.173,2.973c-1.058,0.938-1.997,2.033-2.857,3.154
					c-1.492,1.41-2.9,2.941-4.106,4.494c-1.541,1.982-3.006,4.197-3.927,6.58c-1.467,3.02-2.582,6.252-3.538,9.447
					c-0.133,0.439-0.246,0.881-0.357,1.322c-0.118,0.256-0.22,0.475-0.239,0.531c-0.188,0.535-0.311,1.104-0.401,1.662
					c-0.105,0.645-0.112,1.268-0.074,1.891c-0.154,1.625-0.149,3.256,0.046,4.893c0.301,4.076,1.23,8.223,2.028,12.154
					c0.874,4.303,1.979,8.479,4.401,12.203c1.166,1.791,2.72,3.281,3.928,5.041c1.365,1.99,2.075,4.297,3.291,6.361
					c2.08,3.533,6.019,4.754,9.784,5.648c3.356,0.797,6.657,0.836,8.198-2.699c0.836-1.922,1.192-4.063,1.976-6.018
					c0.902-2.256,2.574-4.066,3.591-6.266c1.34-2.895,1.733-6.113,1.921-9.293c0.018-0.027,0.031-0.055,0.035-0.074
					C57.229,138.965,54.668,134.949,52.352,131.863z"/>
				<path style="fill:#FFDEC1;" d="M40.743,88.256c0.895-0.178,1.841-0.186,2.742-0.08c1.688,0.197,1.49,2.322,0.23,3.133
					c-1.036,0.666-2.066,1.332-3.09,2.014c0.547-1.014,0.729-2.117-0.104-3.051c-0.797-0.893-2.453-0.285-3.357-0.021
					c-1.497,0.438-2.81,1.182-4.055,2.098C35.161,90.285,37.962,88.807,40.743,88.256z"/>
				<path style="fill:#FFDEC1;" d="M29.697,96.188c1.686-1.58,3.266-3.236,5.317-4.355c1.139-0.619,2.856-1.27,4.161-1.137
					c2.142,0.219,0.873,2.543-0.086,3.842c-0.012-0.033-0.018-0.066-0.031-0.1c-1.324-3.385-6.618,1.559-7.753,2.598
					c-1.688,1.543-3.271,3.229-4.896,4.842c-1.383,1.373-2.716,2.779-3.785,4.418c-0.314,0.482-0.601,0.98-0.887,1.48
					C23.477,103.275,26.168,99.498,29.697,96.188z"/>
			</g>
			<path style="fill:#FFDEC1;" d="M53.902,151.797c-0.722,1.896-2.033,3.463-3.047,5.197c-0.935,1.604-1.464,3.455-2.002,5.217
				c-0.715,2.33-1.179,4.424-4.118,4.713c-2.069,0.201-4.566-0.664-6.518-1.281c-1.995-0.631-3.859-1.543-5.345-3.033
				c-1.428-1.432-2.185-3.525-2.979-5.338c-1.511-3.451-4.457-5.936-6.312-9.176c-2.079-3.629-2.902-7.771-3.706-11.826
				c-0.804-4.057-1.557-8.205-1.837-12.334c-0.225-3.307,0.49-6.457,1.359-9.59c0.988-2.543,2.076-5.031,3.541-7.379
				c1.269-2.035,2.967-3.699,4.672-5.365c1.492-1.455,2.925-2.975,4.464-4.381c1.288-1.178,4.698-4.432,6.205-2.094
				c0.06,0.09,0.103,0.188,0.146,0.283c-0.001,0.018-0.001,0.033-0.002,0.051c-0.004,0.102,0.037,0.152,0.092,0.182
				c0.644,1.951-1.325,4.693-2.363,6.014c-2.319,2.949-4.775,5.43-6.385,8.891c-1.618,3.48-2.271,7.023-2.204,10.844
				c0.036,2.098,0.305,4.18,0.404,6.273c0.101,2.096,0.041,4.172,0.44,6.244c0.72,3.734,3.19,6.268,5.924,8.688
				c3.453,3.057,5.358,7.004,7.416,11.037c0.125,0.246,0.541-0.178,0.443-0.391c-0.959-2.088-1.7-4.191-2.887-6.176
				c-1.095-1.828-2.349-3.383-3.899-4.838c-1.729-1.621-3.498-3.104-4.766-5.143c-1.262-2.027-1.65-4.441-1.772-6.781
				c-0.244-4.688-0.954-9.699-0.144-14.346c0.896-5.133,3.847-9.277,7.232-13.063c1.754-1.961,3.909-4.961,3.305-7.768
				c0.243-0.254,0.49-0.533,0.723-0.832c0.843-0.438,1.796-0.916,2.702-1.463c-0.606,1.025-0.918,2.232-1.259,3.391
				c-0.758,2.58-1.129,5.27-1.492,7.928c-0.664,4.857-0.679,9.934,0.926,14.611c1.525,4.443,4.747,8.258,8.194,11.35
				c1.899,1.701,3.199,3.588,4.625,5.674c1.191,1.744,1.792,3.795,2.093,5.861C55.426,145.082,55.141,148.549,53.902,151.797z"/>
		</g>
		<path style="fill:#FDE2C9;" d="M52.352,131.863c-1.23-1.641-2.965-2.855-4.385-4.32c-1.75-1.807-3.188-3.715-4.536-5.836
			c-2.767-4.355-3.244-9.508-2.989-14.541c0.123-2.422,0.501-4.832,0.891-7.225c0.243-1.49,0.586-2.965,0.993-4.418
			c0.296-1.063,0.552-2.32,1.22-3.242c0.73-0.508,1.388-1.07,1.87-1.713c1.174-1.563,0.216-2.895-1.479-3.188
			c-2.414-0.418-4.976,0.508-7.072,1.613c-0.904,0.475-3.039,1.693-4.173,2.973c-1.058,0.938-1.997,2.033-2.857,3.154
			c-1.492,1.41-2.9,2.941-4.106,4.494c-1.541,1.982-3.006,4.197-3.927,6.58c-0.809,1.664-1.503,3.395-2.13,5.146
			c0.006-0.01,0.01-0.017,0.015-0.025c0.916-1.459,2.049-2.762,3.17-4.068c2.028-2.363,4.224-4.605,6.524-6.705
			c0.396-0.361,2.876-2.674,3.228-0.998c0.396,1.879-1.703,4.465-2.516,6c-1.993,3.766-4.078,7.643-4.953,11.85
			c-0.934,4.48-0.755,8.969,0.031,13.457c0.692,3.953,1.818,7.723,4.449,10.846c0.806,0.955,1.679,1.848,2.528,2.76
			c1.64,1.309,3.257,2.639,4.597,4.232c1.439,1.709,2.68,3.598,3.261,5.779c0.583,2.193,0.571,4.322,0.744,6.563
			c0.076,0.979,0.427,2.918-0.647,3.549c-1.037,0.607-2.393-0.391-3.249-0.896c-1.882-1.109-3.97-1.783-5.786-3.041
			c-0.411-0.285-0.806-0.582-1.187-0.889c0.311,0.66,0.634,1.314,1.006,1.947c2.08,3.533,6.019,4.754,9.784,5.648
			c3.356,0.797,6.657,0.836,8.198-2.699c0.836-1.922,1.192-4.063,1.976-6.018c0.902-2.256,2.574-4.066,3.591-6.266
			c1.34-2.895,1.733-6.113,1.921-9.293c0.018-0.027,0.031-0.055,0.035-0.074C57.229,138.965,54.668,134.949,52.352,131.863z"/>
		<g>
			<path style="fill:#D3519D;stroke:#862D64;stroke-miterlimit:10;" d="M64.625,122.623c-1.745,13.254-3.535,23.838-11.946,25.809
				c-1.476,0.348-8.603,0.189-10.116-0.01c-10.134-1.334-16.685-15.049-14.634-30.631c2.052-15.582,11.93-27.133,22.063-25.799
				c1.523,0.201,9.258,1.709,10.602,2.434C68.193,98.52,66.369,109.381,64.625,122.623z"/>
			<path style="fill:#F17BB0;" d="M57.743,98.223c2.572,0.74,5.169,1.576,7.709,2.564c-0.777-2.789-2.272-4.967-4.858-6.361
				c-1.344-0.725-9.079-2.232-10.602-2.434c-3.92-0.516-7.798,0.902-11.203,3.729C45.16,95.301,51.705,96.486,57.743,98.223z"/>
			<path style="fill:#D3519D;" d="M56.23,120.406c-5.533-1.26-11.063-2.482-16.665-3.4c-3.706-0.609-7.529-0.906-11.252-1.578
				c-0.146,0.777-0.279,1.563-0.385,2.363c-0.098,0.738-0.166,1.471-0.225,2.201c1.145,0.27,2.315,0.457,3.454,0.643
				c3.085,0.502,6.154,1.082,9.246,1.543c6.406,0.955,12.832,1.781,19.218,2.867c1.527,0.26,3.05,0.51,4.571,0.746
				c0.146-1.039,0.29-2.09,0.432-3.168c0.015-0.109,0.029-0.219,0.044-0.328C61.856,121.666,59.041,121.047,56.23,120.406z"/>
			<path style="fill:#F17BB0;" d="M53.893,140.283c-6.236-0.326-12.627-0.559-18.769-1.777c-1.706-0.34-3.387-0.771-5.013-1.33
				c2.598,6.234,7.005,10.529,12.451,11.246c1.514,0.199,8.64,0.357,10.116,0.01c3.975-0.932,6.469-3.787,8.181-7.938
				C58.54,140.471,56.219,140.404,53.893,140.283z"/>
			<path style="fill:#F17BAD;" d="M73.174,123.555c-1.96,14.879-11.392,25.908-21.067,24.635
				c-9.677-1.273-15.933-14.369-13.973-29.248c1.959-14.879,11.391-25.908,21.066-24.635
				C68.876,95.58,75.132,108.676,73.174,123.555z"/>
			<path style="fill:#AB218E;stroke:#862D64;stroke-miterlimit:10;" d="M73.174,123.555C71.3,137.789,62.276,148.34,53.02,147.121
				c-9.256-1.219-15.241-13.746-13.366-27.978c1.874-14.234,10.896-24.787,20.152-23.568
				C69.063,96.795,75.048,109.32,73.174,123.555z"/>
			<g>
				<path style="fill:#4D1163;stroke:#862D64;stroke-miterlimit:10;" d="M70.197,123.275c-1.555,11.803-8.977,20.561-16.578,19.561
					c-7.602-1.002-12.503-11.381-10.949-23.186c1.555-11.805,8.976-20.563,16.577-19.561
					C66.849,101.092,71.751,111.471,70.197,123.275z"/>
				<path style="fill:#D3519D;stroke:#862D64;stroke-miterlimit:10;" d="M72.614,123.482c-1.539,11.689-8.949,20.354-16.551,19.354
					c-7.601-1.002-12.516-11.289-10.976-22.979c1.539-11.689,8.948-20.354,16.55-19.352
					C69.238,101.506,74.152,111.793,72.614,123.482z"/>
			</g>
		</g>
	</g>
	<path style="fill:#101656;" d="M152.014,214.438c0.031-4.191-1.858-8.746-4.117-12.008c-2.745-3.963-6.595-7.861-10.872-10.207
		c-6.279-3.441-13.632-4.602-20.877-4.449c-0.867-0.047-1.74-0.08-2.621-0.092c-6.842-0.098-12.564,1.795-18.179,4.762
		c-1.651,1.441-3.139,3.063-4.656,4.664c-2.389,2.52-4.669,5.156-6.669,7.998c-1.996,2.836-3.581,5.854-4.907,9.057
		c-0.509,1.23-0.98,2.486-1.462,3.736c-0.163,1.094-0.313,2.188-0.439,3.283c-0.089,0.229-0.181,0.455-0.267,0.684
		c-0.517,1.143-1.021,2.301-1.458,3.49c-1.74,4.689-3.296,9.467-4.8,14.238c-3.401,10.789-6.315,21.254-8.248,32.406
		c-1.399,8.074-4.293,18.209-0.629,26.016c2.456,5.221,8.844,5.641,14.629,4.994c9.205,3.824,20.215,3.828,30.484,1.854
		c6.844,1.307,14.285,0.869,21.203,0.701c6.164-0.16,14.016-0.701,18.668-5.205c1.235-1.197,1.84-3.102,2.078-4.736
		c0.708-4.955,0.469-9.604-0.064-14.555c-0.398-3.664-0.746-7.33-1.31-10.973c-0.078-0.51-0.164-1.051-0.254-1.607
		c-0.099-3.344-0.202-6.916-0.943-10.064c0.023-0.516,0.078-1.004,0.142-1.488c1.684-7.867,2.922-15.828,3.852-23.707
		c0.002-0.01,0.003-0.021,0.005-0.033c0.15-0.574,0.298-1.146,0.419-1.727c0.668-3.186,0.909-6.424,1.246-9.652
		C152.229,219.33,152.27,216.857,152.014,214.438z"/>
	<path style="fill:#6EBE44;" d="M150.26,209.34c-0.722-2.381-1.824-4.725-3.147-6.818c-2.766-4.373-7.518-8.521-12.267-10.613
		c-2.13-0.938-4.298-1.615-6.49-2.115c-0.702-0.23-1.428-0.375-2.15-0.566c-6.372-1.685-15.509-0.492-18.601-0.291
		c-4.62,0.609-9.056,1.891-13.2,4.363c-1.284,1.213-2.488,2.518-3.713,3.809c-2.389,2.52-4.669,5.156-6.669,7.998
		c-1.996,2.836-3.581,5.854-4.907,9.057c-0.184,0.445-0.357,0.895-0.532,1.344c-0.211,1.199-0.402,2.398-0.56,3.604
		c1.406-3.438,2.936-6.83,4.532-10.139c0.022-0.047,0.196-0.172,0.158-0.055c-0.271,0.766-0.545,1.545-0.816,2.324
		c0.046-0.031,0.097-0.061,0.075-0.002c-0.209,0.607-0.451,1.199-0.687,1.791c-1.747,5.078-3.562,10.344-6.068,14.977
		c-1.114,3.211-2.192,6.432-3.201,9.668c-2.886,9.277-5.974,18.354-7.632,27.947c-0.913,5.258-1.952,10.516-2.574,15.816
		c-0.467,3.941-1.3,8.375-0.289,12.301c1.8,6.975,7.137,8.467,13.006,8.436c-1.382-0.674-2.714-1.447-3.996-2.314
		c3.058,1.242,6.146,2.416,9.31,3.246c12.848,3.688,26.964,1.895,39.815-2.236c0.533-0.061,1.057-0.104,1.579-0.145
		c-4.006,1.568-8.4,2.918-12.984,3.881c5.401,0.252,10.91,0.32,16.284,0.182c7.482-0.191,22.485,0.373,23.705-9.721
		c0.741-6.141-1.383-22.703-1.775-25.512c-0.003-0.365-0.369-4.494-0.445-6.232c-0.044-1.02-0.183-2.135-0.258-3.246
		c-1.89,8.189-7.906,24.422-8.116,24.471c0.591-2.676,1.314-5.326,2.085-7.967c1.659-5.217,3.494-10.397,4.781-15.73
		c1.461-6.08,2.81-12.084,3.844-18.184c0.792-3.094,1.013-6.369,1.23-9.627c0.376-1.799,0.748-3.596,0.967-5.422
		c0.238-1.982,0.334-3.916,0.393-5.877C151.242,217.492,151.257,213.381,150.26,209.34z"/>
	<path style="fill:#293791;" d="M150.26,209.34c-0.722-2.381-1.824-4.725-3.147-6.818c-2.766-4.373-7.518-8.521-12.267-10.613
		c-2.13-0.938-4.298-1.615-6.49-2.115c-0.702-0.23-1.428-0.375-2.15-0.566c-6.372-1.685-15.509-0.492-18.601-0.291
		c-4.62,0.609-9.056,1.891-13.2,4.363c-1.284,1.213-2.488,2.518-3.713,3.809c-2.389,2.52-4.669,5.156-6.669,7.998
		c-1.996,2.836-3.581,5.854-4.907,9.057c-0.184,0.445-0.357,0.895-0.532,1.344c-0.211,1.199-0.402,2.398-0.56,3.604
		c1.406-3.438,2.936-6.83,4.532-10.139c0.022-0.047,0.196-0.172,0.158-0.055c-0.271,0.766-0.545,1.545-0.816,2.324
		c0.046-0.031,0.097-0.061,0.075-0.002c-0.209,0.607-0.451,1.199-0.687,1.791c-1.747,5.078-3.562,10.344-6.068,14.977
		c-1.114,3.211-2.192,6.432-3.201,9.668c-2.886,9.277-5.974,18.354-7.632,27.947c-0.913,5.258-1.952,10.516-2.574,15.816
		c-0.467,3.941-1.3,8.375-0.289,12.301c1.8,6.975,7.137,8.467,13.006,8.436c-1.382-0.674-2.714-1.447-3.996-2.314
		c3.058,1.242,6.146,2.416,9.31,3.246c12.848,3.688,26.964,1.895,39.815-2.236c0.533-0.061,1.057-0.104,1.579-0.145
		c-4.006,1.568-8.4,2.918-12.984,3.881c5.401,0.252,10.91,0.32,16.284,0.182c7.482-0.191,22.485,0.373,23.705-9.721
		c0.741-6.141-1.383-22.703-1.775-25.512c-0.003-0.365-0.369-4.494-0.445-6.232c-0.044-1.02-0.183-2.135-0.258-3.246
		c-1.89,8.189-7.906,24.422-8.116,24.471c0.591-2.676,1.314-5.326,2.085-7.967c1.659-5.217,3.494-10.397,4.781-15.73
		c1.461-6.08,2.81-12.084,3.844-18.184c0.792-3.094,1.013-6.369,1.23-9.627c0.376-1.799,0.748-3.596,0.967-5.422
		c0.238-1.982,0.334-3.916,0.393-5.877C151.242,217.492,151.257,213.381,150.26,209.34z"/>
	<path style="fill:#293791;" d="M63.818,268.809c-0.038,5.609,0.858,11.123,3.304,16.086c-0.896-7.41-0.933-14.713,0.229-22.148
		c1.33-8.52,3.336-17.064,6.188-25.205c2.854-8.149,6.198-16.131,9.42-24.137c1.585-3.943,3.282-7.75,5.585-11.334
		c1.783-2.775,3.664-5.488,5.387-8.299c-1.105,1.08-2.168,2.207-3.238,3.336c-2.389,2.52-4.669,5.156-6.669,7.998
		c-1.996,2.836-3.581,5.854-4.907,9.057c-0.184,0.445-0.357,0.895-0.532,1.344c-0.211,1.199-0.402,2.398-0.56,3.604
		c1.406-3.438,2.936-6.83,4.532-10.139c0.022-0.047,0.196-0.172,0.158-0.055c-0.271,0.766-0.545,1.545-0.816,2.324
		c0.046-0.031,0.097-0.061,0.075-0.002c-0.209,0.607-0.451,1.199-0.687,1.791c-1.747,5.078-3.562,10.344-6.068,14.977
		c-1.114,3.211-2.192,6.432-3.201,9.668c-2.886,9.277-5.974,18.354-7.632,27.947C64.2,266.684,64.009,267.746,63.818,268.809z"/>
	<path style="opacity:0.5;fill:#6EBE44;" d="M97.254,192.063c2.482-0.498,5.021-0.689,7.482-1.289c0.243-0.059,0.52,0.168,0.43,0.43
		c-1.468,4.266-2.539,9.354-1.021,13.762c1.734,5.037,6.997,7.588,12.173,7.006c3.553-0.4,6.84-2.043,9.579-4.305
		c2.455-2.029,4.957-4.4,5.936-7.529c0.683-2.186,1.146-4.4,2.745-6.119c0.735-0.791,1.853-0.893,2.94-0.719
		c-0.882-0.527-1.777-0.996-2.672-1.391c-2.13-0.938-4.298-1.615-6.49-2.115c-0.702-0.23-1.428-0.375-2.15-0.566
		c-6.372-1.685-15.509-0.492-18.601-0.291c-3.967,0.523-7.795,1.547-11.422,3.389C96.537,192.227,96.893,192.135,97.254,192.063z"/>
	<path style="opacity:0.4;fill:#293791;" d="M150.26,209.34c-0.722-2.381-1.824-4.725-3.147-6.818
		c-1.854-2.934-4.604-5.762-7.646-7.939c-0.041-0.002-0.084-0.008-0.127-0.027c-0.245-0.104-0.495-0.197-0.746-0.277
		c0.208,4.979,2.862,9.861,4.382,14.504c1.587,4.854,2.242,62.408-28.498,77.74c-8.507,4.242-18.987,5.01-28.331,4.031
		c-3.867-0.404-8.4-0.728-11.754-2.922c-2.375-1.551-3.882-3.785-4.99-6.31c-0.593,3.637-0.275,7.658,1.218,10.994
		c0.151,0.336-0.266,0.742-0.548,0.422c-5.233-5.941-6.876-13.324-6.768-21.004c-0.569,3.227-1.111,6.457-1.492,9.705
		c-0.467,3.941-1.3,8.375-0.289,12.301c1.8,6.975,7.137,8.467,13.006,8.436c-1.382-0.674-2.714-1.447-3.996-2.314
		c3.058,1.242,6.146,2.416,9.31,3.246c12.848,3.688,26.964,1.895,39.815-2.236c0.533-0.061,1.057-0.104,1.579-0.145
		c-4.006,1.568-8.4,2.918-12.984,3.881c5.401,0.252,10.91,0.32,16.284,0.182c7.482-0.191,22.485,0.373,23.705-9.721
		c0.741-6.141-1.383-22.703-1.775-25.512c-0.003-0.365-0.369-4.494-0.445-6.232c-0.044-1.02-0.183-2.135-0.258-3.246
		c-1.89,8.189-7.906,24.422-8.116,24.471c0.591-2.676,1.314-5.326,2.085-7.967c1.659-5.217,3.494-10.397,4.781-15.73
		c1.461-6.08,2.81-12.084,3.844-18.184c0.792-3.094,1.013-6.369,1.23-9.627c0.376-1.799,0.748-3.596,0.967-5.422
		c0.238-1.982,0.334-3.916,0.393-5.877C151.242,217.492,151.257,213.381,150.26,209.34z"/>
	<path style="opacity:0.4;fill:#293791;" d="M150.26,209.34c-0.722-2.381-1.824-4.725-3.147-6.818
		c-0.294-0.465-0.617-0.924-0.953-1.381c0.597,2.031,1.107,4.102,1.419,6.146c1.41,9.23,0.17,19.039-1.295,28.199
		c-1.364,8.535-3.291,16.994-4.966,25.475c-0.518,2.627-1.07,5.281-1.734,7.908c-0.526,3.459-1.394,6.883-2.542,10.162
		c-1.451,4.146-2.42,8.646-4.505,12.549c4.938-3.582,8.537-8.979,10.599-14.664c0.131-0.361,0.681-0.316,0.686,0.094
		c0.076,5.805-0.547,12.381-4.307,17.094c-3.809,4.775-11.016,7.938-17.109,7.35c-0.264-0.025-0.514-0.387-0.247-0.598
		c3.668-2.912,5.544-6.902,6.693-11.215c-9.905,9.703-25.122,12.553-38.931,11.689c-8.303-0.518-18.078-2.297-23.756-8.986
		c-2.169-2.555-3.596-5.484-4.648-8.576c-0.425,3.305-0.811,6.803,0.006,9.971c1.8,6.975,7.137,8.467,13.006,8.436
		c-1.382-0.674-2.714-1.447-3.996-2.314c3.058,1.242,6.146,2.416,9.31,3.246c12.848,3.688,26.964,1.895,39.815-2.236
		c0.533-0.061,1.057-0.104,1.579-0.145c-4.006,1.568-8.4,2.918-12.984,3.881c5.401,0.252,10.91,0.32,16.284,0.182
		c7.482-0.191,22.485,0.373,23.705-9.721c0.741-6.141-1.383-22.703-1.775-25.512c-0.003-0.365-0.369-4.494-0.445-6.232
		c-0.044-1.02-0.183-2.135-0.258-3.246c-1.89,8.189-7.906,24.422-8.116,24.471c0.591-2.676,1.314-5.326,2.085-7.967
		c1.659-5.217,3.494-10.397,4.781-15.73c1.461-6.08,2.81-12.084,3.844-18.184c0.792-3.094,1.013-6.369,1.23-9.627
		c0.376-1.799,0.748-3.596,0.967-5.422c0.238-1.982,0.334-3.916,0.393-5.877C151.242,217.492,151.257,213.381,150.26,209.34z"/>
	<g>
		<path style="fill:#CD7E5B;" d="M124.821,204.811c2.083-1.283,3.827-2.795,5.065-4.932c0.945-1.635,0.893-3.799,0.942-5.619
			c0.029-1.059,0.102-2.111,0.189-3.164c0.014-1.455,0.063-2.908,0.196-4.359c0.246-2.637,0.852-5.547,0.53-8.244
			c-0.143-0.443-0.315-0.869-0.558-1.258c-0.537-1.182-1.63-1.963-3.704-2.254c-4.739-0.664-10.402-0.209-14.853,1.611
			c-4.33,1.77-5.601,4.721-5.135,9.225c0.288,2.797,0.361,5.547-0.389,8.283c-0.56,2.037-1.473,4.246-1.35,6.398
			C106.293,209.895,119.235,208.252,124.821,204.811z"/>
		<path style="fill:#FFE3CB;" d="M106.688,200.834c0.127-3.576,1.852-6.855,1.896-10.465c0.037-3.262-1.521-7.977,1.019-10.648
			c2.762-2.906,7.626-3.666,11.443-3.936c2.213-0.156,4.538-0.395,6.733,0.033c1.574,0.309,2.437,0.979,2.907,1.879
			c0.272,0.682,0.396,1.389,0.43,2.109c0.145,1.158,0.021,2.369-0.127,3.656c-0.235,2.061-0.462,4.111-0.732,6.158
			c-0.188,3.358,0.276,7.479-1.606,10.219c-2.267,3.297-6.16,5.561-10.046,6.414C114.295,207.203,106.465,207.113,106.688,200.834z"
			/>
		<path style="fill:#F1D6C2;" d="M131.116,179.807c-0.034-0.721-0.157-1.428-0.43-2.109c-0.471-0.9-1.333-1.57-2.907-1.879
			c-2.195-0.428-4.521-0.189-6.733-0.033c-3.817,0.27-8.682,1.029-11.443,3.936c-2.54,2.672-0.981,7.387-1.019,10.648
			c-0.012,0.879-0.124,1.738-0.286,2.588c1.745,0.15,3.548-0.068,5.318-0.215c1.751-0.146,3.524-0.215,5.261-0.492
			c0.958-0.152,1.866-0.541,2.821-0.668c3.832-0.514,2.925,4.572,2.243,6.813c-1.078,3.549-3.185,6.244-6.363,8.053
			c0.358-0.059,0.703-0.123,1.026-0.193c3.886-0.854,7.779-3.117,10.046-6.414c1.883-2.74,1.418-6.861,1.606-10.219
			c0.271-2.047,0.497-4.098,0.732-6.158C131.138,182.176,131.261,180.965,131.116,179.807z"/>
	</g>
	<path style="fill:#293791;" d="M117.314,215.072c-2.482-0.174-4.773-0.137-7.19-0.875c-2.102-0.643-3.976-1.893-5.481-3.475
		c-3.506-3.686-3.574-10.285-2.277-14.885c0.093-0.328-0.293-0.164-0.368,0.033c-1.789,4.666-1.786,10.738,1.145,14.957
		c2.959,4.258,9.049,5.959,13.936,4.918C117.326,215.691,117.759,215.102,117.314,215.072z"/>
	<g>
		<g>
			<g>
				<g>
					<path style="fill:#554033;" d="M239.883,86.92c6.273,3.058,10.237,0.948,10.237,0.948
						c-8.979-1.667-11.569-13.467-21.762-33.399c-10.179-19.925-30.756-19.302-30.756-19.302S194.82,17.235,161.42,9.673
						c-33.405-7.564-72.329,5.792-103.394,15.602c-31.075,9.809-34.097-5.182-34.097-5.182c0.577,12.144,8.967,16.748,8.967,16.748
						c-11.258-6.321-15.206,0.746-15.206,0.746c8.833-0.556,12.351,3.263,12.351,3.263C11.878,41.904,5.878,58.277,5.878,58.277
						c10.61-8.612,21.646-3.808,21.646-3.808c-10.334,1.577-14.332,10.184-14.332,10.184c3.841-0.469,6.946,0.403,9.515,2.53
						c2.847,1.593,5.204,4.038,7.2,6.676c3.703,4.892,7.118,10.167,10.399,15.348c3.677,5.809,6.707,12.029,8.769,18.599
						c1.021,3.252,1.858,6.56,2.436,9.92c0.131,0.758,0.233,1.524,0.326,2.296c0.107-0.252,3.397-8.187,1.339-21.978
						c-0.731-4.912,9.481-16.169,19.19-22.047c0,0-6.117,4.072-9.711,15.887c0,0,21.685-15.333,36.161-19.849
						c0,0-9.475,9.893-15.306,13.189c0,0,26.803-2.132,45.151-18.174c0,0-9.297,11.177-10.259,21.115
						c0,0,7.698-13.393,36.445-21.676c0,0-5.032,8.726-3.116,19.111c0,0,3.475-9.664,10.082-15.427c0,0-4.467,4.72,5.638,19.304
						c10.096,14.582,10.092,33.837,0.943,58.576c-0.539,1.464,3.779-1.999,9.517-11.413c5.735-9.413,17.215-8.662,16.971,4.023
						c-0.247,12.681-11.759,21.455-21.86,16.164c0,0-2.063,16.931-22.395,25.38c34.229,1.541,49.469-23.053,68.761-49.07
						c19.295-26.019,26.104-26.29,26.104-26.29c-1.512-6.264-8.704-11.788-8.704-11.788c7.614,0.153,10.239,2.472,10.239,2.472
						C245.807,91.637,239.883,86.92,239.883,86.92z"/>
					<path style="fill:#2D2017;" d="M236.336,95.113c2.253,1.765,4.225,3.896,5.934,6.179c0.468,0.637,2.538,5.377,3.102,5.356
						c-0.143,0.003-0.281,0.021-0.423,0.064c-1.975,0.438-3.767,1.869-5.313,3.075c-13.124,10.178-22.108,25.426-32.001,38.489
						c-10.485,13.837-22.593,27.223-39.896,32.008c-4.821,1.332-9.852,1.772-14.849,1.77c-2.342-0.003-0.356-0.351,0.524-0.762
						c1.096-0.516,2.158-1.112,3.22-1.709c1.923-1.094,3.703-2.416,5.418-3.818c4.794-3.899,8.444-9.194,10.489-15.003
						c0.396-1.123,0.737-2.299,0.93-3.475c13.002,5.428,24.838-8.75,21.275-21.584c-1.141-4.089-5.388-6.534-9.49-5.393
						c-7.204,1.997-9.935,10.263-14.459,15.471c-0.521,0.606-1.094,1.184-1.703,1.715c0.364-1.167,0.864-2.322,1.256-3.463
						c1.707-4.992,3.052-10.107,4.052-15.297c1.555-8.159,1.941-16.937-0.114-25.048c-0.963-3.824-2.363-7.442-4.261-10.901
						c-2.246-4.101-5.135-7.717-7.035-12.033c-1.116-2.555-2.996-7.893-0.688-10.476c0.193-0.219-0.775-0.394-0.977-0.205
						c-4.022,3.684-7.181,8.437-9.325,13.495c-0.513-5.79,0.485-11.891,3.337-16.981c0.17-0.311-0.697-0.321-0.84-0.278
						c-10.095,2.975-20.228,7.033-28.581,13.585c-2.294,1.797-4.766,3.836-6.643,6.209c1.422-6.953,5.428-13.549,9.875-18.954
						c0.202-0.243-0.781-0.371-0.978-0.198c-11.269,9.63-25.656,15.014-40.15,17.447c-1.345,0.229-2.68,0.405-4.028,0.562
						c-0.233,0.021-0.473,0.047-0.699,0.061c1.813-0.152,2.805-0.963,4.24-2.098c4.181-3.278,8.087-6.956,11.776-10.789
						c0.223-0.234-0.725-0.32-0.846-0.273C85.991,75.892,74.273,83.3,63.536,90.82c1.781-5.289,4.563-11.45,9.261-14.672
						c0.339-0.236-0.64-0.434-0.862-0.296c-0.01,0.006-0.02,0.013-0.029,0.019v-0.003c-0.008,0.006-0.015,0.013-0.022,0.018
						c-4.713,2.945-8.957,6.514-12.764,10.563c-2.7,2.868-5.782,6.47-6.462,10.481c-0.416,2.428,0.532,5.501,0.643,7.979
						c0.129,2.842-0.041,5.693-0.408,8.512c-0.21,1.642-0.506,3.344-0.996,4.957c-0.147-0.445-0.313-0.874-0.504-1.281
						c0.038,0.209,0.084,0.418,0.12,0.628c0.145,0.839,0.256,1.688,0.356,2.542c0.212,0.008,0.418-0.043,0.474-0.172
						c1.486-3.566,1.824-7.702,1.99-11.513c0.169-3.854-0.883-7.752-0.647-11.553c0.188-3.185,3.021-6.376,4.939-8.711
						c2.492-3.015,5.417-5.671,8.438-8.143c0.54-0.429,1.103-0.832,1.658-1.244c-3.13,3.688-5.14,8.398-6.576,12.902
						c-0.082,0.27,0.809,0.295,0.958,0.203c10.557-7.462,22.112-14.962,34.405-19.254c-4.36,4.506-9.047,9.107-14.428,12.297
						c-0.379,0.218,0.57,0.354,0.682,0.354c14.862-1.237,30.393-6.778,42.37-15.87c-4.043,5.455-7.401,11.884-8.239,18.549
						c-0.037,0.288,0.874,0.364,1.001,0.149c1.669-2.846,4.388-5.216,6.907-7.295c8.127-6.728,18.206-10.912,28.231-13.946
						c-2.936,5.618-3.77,12.333-2.816,18.528c0.052,0.302,0.93,0.384,1.028,0.099c1.804-4.918,4.59-9.649,8.185-13.499
						c-0.188,1.116-0.099,2.33,0.014,3.297c0.805,6.895,5.844,12.357,9.055,18.212c7.795,14.231,5.493,31.418,1.091,46.3
						c-0.252,0.875-4.701,9.96-1.415,8.465c1.477-0.675,2.702-2.523,3.704-3.718c2.679-3.242,4.555-7.053,7.22-10.271
						c2.711-3.269,7.593-5.419,11.313-2.482c3.148,2.479,3.156,7.422,2.785,10.984c-1.02,9.893-10.908,18.519-20.787,13.775
						c-0.148-0.068-0.857-0.236-0.896,0.066c-1.527,11.786-12.08,20.86-22.321,25.277c-0.367,0.153,0.475,0.35,0.553,0.352
						c11.792,0.439,22.983-2.227,32.942-8.628c10.33-6.633,18.25-16.494,25.578-26.161c8.464-11.17,16.251-22.941,26.151-32.943
						c2.263-2.296,6.939-7.413,10.193-7.614c0.122-0.006,0.443-0.022,0.386-0.218c-1.251-4.334-4.211-7.805-7.491-10.786
						c-0.329-0.302-0.692-0.602-1.037-0.891c-0.2-0.148-0.288-0.245-0.282-0.301c-0.168-0.007-0.345-0.015-0.508-0.021
						C236.568,94.842,236.103,94.926,236.336,95.113z"/>
					<path style="fill:#2D2017;" d="M250.275,87.689c-7.327-1.575-10.572-10.386-13.394-16.408
						c-4.2-8.975-7.705-18.89-14.737-26.098c-4.492-4.605-10.439-7.592-16.623-9.181c-1.933-0.497-3.921-0.8-5.913-0.965
						c-0.516-0.044-1.029-0.068-1.549-0.076c-1.363-6.837-7.638-12.48-13.079-16.146c-15.07-10.154-34.887-12.339-52.584-11.33
						c-24.822,1.411-48.835,9.404-72.352,16.858c-9.181,2.905-21.116,6.728-30.347,1.915c-2.27-1.189-4.695-3.488-5.252-6.112
						c-0.066-0.303-1.049-0.373-1.035-0.099c0.351,4.903,1.819,9.404,4.938,13.243c0.602,0.735,1.281,1.39,1.988,2.013
						c-4.138-1.737-10.535-2.267-13.141,2.183c-0.142,0.243,0.49,0.318,0.616,0.313c3.796-0.14,7.694,0.229,10.922,2.399
						c1.876,1.271-2.046,0.788-3.226,1.008c-3.932,0.75-7.824,2.536-10.949,5.016c-3.91,3.101-7.417,7.283-9.188,12.006
						c-0.094,0.263,0.81,0.303,0.951,0.202c4.561-3.509,9.76-5.405,15.563-5.015c1.506,0.105,3.009,0.426,4.444,0.878
						c0.258,0.071,0.514,0.172,0.768,0.265c-1.003-0.375-2.324,0.265-3.242,0.533c-4.584,1.391-9.067,5.103-11.154,9.455
						c-0.135,0.304,0.589,0.317,0.734,0.308c2.762-0.263,5.057,0.247,7,1.293c1.352,0.485,2.607,1.161,3.771,1.981
						c-1.346-1.324-2.926-2.413-4.845-3.137c-1.42-0.539-2.966-0.644-4.46-0.67c-1.354-0.031-1.418,0.667-0.556-0.75
						c2.95-4.82,7.928-7.901,13.427-8.894c0.173-0.032,0.417-0.2,0.125-0.312c-6.932-2.937-14.889-1.322-20.979,2.726
						c4.037-9.217,13.482-15.28,23.367-16.042c0.145-0.01,0.36-0.103,0.203-0.263c-2.481-2.563-6.673-3.211-10.036-3.443
						c-1.892-0.123-2.925,0.704-1.154-0.984c3.707-3.535,9.333-1.473,13.221,0.588c0.219,0.123,1.228,0.059,0.751-0.215
						c-4.851-2.74-7.479-8.233-8.448-13.607c2.536,3.421,7.604,5.003,11.498,5.502c8.229,1.044,16.686-1.473,24.422-3.926
						c10.526-3.335,21.04-6.685,31.704-9.569c23.128-6.266,47.799-10.501,71.46-4.637c12.315,3.052,26.89,9.456,32.299,21.904
						c0.373,0.858,0.725,1.785,0.877,2.716c0.037,0.232,0.457,0.265,0.632,0.265c4.163-0.102,8.436,1.05,12.268,2.539
						c9.709,3.765,15.451,11.576,19.908,20.611c3.911,7.94,6.914,16.737,12.069,23.99c1.298,1.828,2.932,3.378,4.889,4.475
						c0.764,0.422,1.649,0.744,2.498,0.93c0.456,0.095-0.029-0.04-0.511,0.104c-2.851,0.915-5.974-0.069-8.571-1.219
						c-0.144-0.061-1.171-0.103-0.838,0.168c3.094,2.514,5.626,5.864,6.823,9.673c-2.466-1.366-5.745-1.642-8.512-1.763
						c0.371,0.091,0.921,0.264,1.659,0.521c1.002,0.089,2.003,0.252,2.984,0.477c1.373,0.279,3.041,0.767,4.164,1.681
						c0.143,0.221,0.947,0.257,0.977-0.001c0.001-0.005,0.003-0.01,0.003-0.015c0-0.011,0.008-0.02,0.005-0.031
						c-0.767-3.015-2.312-5.494-4.318-7.842c-0.563-0.663-1.185-1.274-1.818-1.872c2.87,0.966,6.334,1.604,9.156,0.212
						C250.823,87.887,250.37,87.706,250.275,87.689z"/>
				</g>
				<g style="opacity:0.6;">
					<g>
						<path style="fill:#5E5F5E;" d="M239.883,86.92c6.273,3.058,10.237,0.948,10.237,0.948
							c-8.979-1.667-11.569-13.467-21.762-33.399c-10.179-19.925-30.756-19.302-30.756-19.302s-1.78-11.335-19.298-19.782
							c1.851,0.982,13.605,7.844,12.164,20.693c-2.23,19.86-33.298,32.444-32.183,29.771c3.539-8.48,9.865-10.608,6.893-10.175
							c-22.302,3.281-39.077,22.539-37.059,16.909c2.026-5.624,8.957-15.544,5.063-12.667C118.1,71.088,94.461,80.459,97.469,77.356
							c3.011-3.103,13.202-12.533,13.202-12.533c-20.067,2.372-43.314,22.82-39.166,15.783c4.153-7.038,9.937-14.539,9.937-14.539
							C64.697,70.329,51.18,91.469,51.938,85.323c1.518-12.29,9.938-22.933,9.938-22.933C53.509,70.25,32.8,79.413,33.545,74.918
							c1.795-10.743,10.736-15.601,10.736-15.601c-12.54-0.357-22.708,1.959-19.128-0.566c5.923-4.189,14.604-6.8,14.604-6.8
							c-11.232-5.423-21.133-4.348-21.133-4.348c9.057-7.274,22.424-6.309,22.424-6.309c-4.214-0.966-6.613-3.395-6.613-3.395
							c4.991,0.807,10.311-0.134,10.311-0.134c-9.914-2.36-11.012-7.443-11.012-7.443c8.407,2.199,19.878-0.108,52.918-11.739
							c11.626-4.088,21.908-7.263,31.665-9.324c-21.001,3.248-42.01,10.24-60.29,16.016c-31.075,9.809-34.097-5.182-34.097-5.182
							c0.577,12.144,8.967,16.748,8.967,16.748c-11.258-6.321-15.206,0.746-15.206,0.746c8.833-0.556,12.351,3.263,12.351,3.263
							C11.878,41.904,5.878,58.277,5.878,58.277c10.61-8.612,21.646-3.808,21.646-3.808c-10.334,1.577-14.332,10.184-14.332,10.184
							c3.841-0.469,6.946,0.403,9.515,2.53c2.847,1.593,5.204,4.038,7.2,6.676c3.703,4.892,7.118,10.167,10.399,15.348
							c3.677,5.809,6.707,12.029,8.769,18.599c1.021,3.252,1.858,6.56,2.436,9.92c0.131,0.758,0.233,1.524,0.326,2.296
							c0.107-0.252,3.397-8.187,1.339-21.978c-0.731-4.912,9.481-16.169,19.19-22.047c0,0-6.117,4.072-9.711,15.887
							c0,0,21.685-15.333,36.161-19.849c0,0-9.475,9.893-15.306,13.189c0,0,26.803-2.132,45.151-18.174
							c0,0-9.297,11.177-10.259,21.115c0,0,7.698-13.393,36.445-21.676c0,0-5.032,8.726-3.116,19.111c0,0,3.475-9.664,10.082-15.427
							c0,0-4.467,4.72,5.638,19.304c10.096,14.582,10.092,33.837,0.943,58.576c-0.539,1.464,3.779-1.999,9.517-11.413
							c5.735-9.413,17.215-8.662,16.971,4.023c-0.247,12.681-11.759,21.455-21.86,16.164c0,0-2.063,16.931-22.395,25.38
							c34.229,1.541,49.469-23.053,68.761-49.07c19.295-26.019,26.104-26.29,26.104-26.29c-1.512-6.264-8.704-11.788-8.704-11.788
							c7.614,0.153,10.239,2.472,10.239,2.472C245.807,91.637,239.883,86.92,239.883,86.92z M226.284,86.146
							c0,0,10.096,8.739,13.27,16.963c0,0-14.97,5.936-25.516,24.824c-10.551,18.886-16.084,19.874-16.084,19.874
							s8.947-15.142,0.179-24.861c0,0,0.415,4.009-0.301,9.016c0,0-1.469-7.575-7.77-9.903c-6.318-2.32-12.832,4.59-12.832,4.59
							s5.721-15.833,0.759-28.58c-7.798-20.028-4.506-25.381-4.506-25.381c-2.306,2.457-4.281,6.64-4.281,6.64
							s-1.159-11.137,14.995-25.458c19.386-17.209,37.806-13.82,44.35,3.546c6.995,18.564,12.525,26.163,12.525,26.163
							s-4.776-0.652-8.087-4.064c0,0,3.184,7.525,8.042,10.16C241.027,89.674,232.73,88.763,226.284,86.146z"/>
					</g>
				</g>
				<g style="opacity:0.6;">
					<path style="fill:#5E5F5E;" d="M58.179,88.167c-5.701,3.604-8.885,15.128-12.248,8.155c-3.365-6.986-1.171-18.241-1.171-18.241
						s-3.263,5.863-6.264,8.292c0.607,0.945,1.214,1.892,1.811,2.834c3.677,5.809,6.707,12.029,8.769,18.599
						c1.021,3.252,1.858,6.56,2.436,9.92c0.131,0.758,0.233,1.524,0.326,2.296c0.107-0.252,3.397-8.187,1.339-21.978
						C52.833,95.743,54.886,92.05,58.179,88.167z"/>
				</g>
				<g style="opacity:0.6;">
					<path style="fill:#5E5F5E;" d="M185.9,159.985c1.402-1.895,2.462-3.868,3.277-5.799c-4.319,4.141-10.464,5.618-16.153,2.643
						c0,0-2.063,16.931-22.395,25.38c21.439,0.964,35.428-8.317,47.623-21.783C189.543,165.679,181.401,166.058,185.9,159.985z"/>
				</g>
				<path style="opacity:0.5;fill:#FFFFFF;" d="M172.875,48.123c-17.913,1.856-38.623,16.108-38.623,16.108
					c2.447-4.565,4.181-11.148,4.181-11.148c-10.389,9.02-29.287,15.94-29.287,15.94c3.47-3.772,6.461-8.698,6.461-8.698
					c-11.711-0.528-32.506,7.824-32.506,7.824c4.253-7.538,14.911-13.252,14.911-13.252c-22.984-1.381-37.934,15.943-37.934,15.943
					c3.46-12.115,13.502-17.84,13.502-17.84c-14.483,1.073-21.564,7.677-21.564,7.677c0.889-5.754,7.533-13.03,7.533-13.03
					s-3.742,2.763-12.421,0.675c-8.688-2.103-17.64-1.306-17.64-1.306s3.178-3.459,14.243-3.518
					C54.794,43.44,58.1,39.982,58.1,39.982c-6.661,1.694-9.937-1.091-9.937-1.091c7.146-0.481,11.598-4.826,11.598-4.826
					C46.196,34.993,40.96,31.75,40.96,31.75c11.258,0.477,36.663-8.687,59.953-16.429c37.773-12.547,59.727-4.036,59.727-4.036
					s-24.123-6.954-58.117,8.41c-8.826,3.988-23.537,7.2-27.472,8.301c0,0,2.017,1.364,6.111,1.047c0,0-5.515,3.976-11.802,5.571
					c0,0,7.873,0.098,13.607-2.321c0,0-5.733,4.71-13.337,9.22c0,0,5.143,1.713,11.711-1.388c0,0-6.04,6.448-9.99,8.817
					c0,0,8.315-2.772,15.491-2.123c0,0-3.76,1.749-6.04,5.196c0,0,14.52-1.464,25.34-0.398c0,0-3.371,2.933-4.61,4.949
					c0,0,5.481-4.379,23.818-2.369c0,0-1.43,2.964-2.817,4.849c0,0,11.349-4.685,18.462-13.816c0,0,1.383,4.718-0.362,9.451
					C140.146,55.977,153.081,47.062,172.875,48.123z"/>
				<path style="opacity:0.5;fill:#FFFFFF;" d="M201.323,106.292c9.303,12.458,3.701,26.584,3.701,26.584
					c0.244-11.586-10.597-22.767-10.597-22.767c0.191,2.817,1.164,6.672,1.164,6.672c-6.063-3.77-7.957-10.805-7.957-10.805
					c-0.656,5.962-5.695,10.872-5.695,10.872c2.855-5.547,3.105-17.429-2.654-28.617c-5.767-11.182,0.193-21.453,0.193-21.453
					c-2.431,1.261-4.305,3.214-4.305,3.214c2.039-8.943,10.198-14.479,10.198-14.479s-2.98,3.153-4.188,6.412
					c0,0,1.967-1.652,3.941-1.857c0,0-6.325,12.236-2.575,21.151c4.028,9.598,4.613,15.851,4.613,15.851s0.91-2.852,0.523-4.771
					c0,0,3.424,5.878,3.927,12.88c0,0,1.03-1.626,1.05-3.291c0,0,5.167,3.414,7.978,9.822
					C200.642,111.712,201.54,108.897,201.323,106.292z"/>
			</g>
			<g>
				<g>
					<path style="fill:#FCD5B7;" d="M194.884,140.665c0.244-12.686-11.235-13.437-16.971-4.023
						c-5.737,9.414-10.056,12.877-9.517,11.413c9.148-24.739,9.152-43.994-0.943-58.576c-10.105-14.584-5.638-19.304-5.638-19.304
						c-6.608,5.763-10.082,15.427-10.082,15.427c-1.916-10.385,3.116-19.111,3.116-19.111
						c-28.747,8.283-36.445,21.676-36.445,21.676c0.962-9.938,10.259-21.115,10.259-21.115
						c-18.349,16.042-45.151,18.174-45.151,18.174c5.831-3.297,15.306-13.189,15.306-13.189
						c-14.476,4.516-36.161,19.849-36.161,19.849c3.594-11.814,9.711-15.887,9.711-15.887c-9.709,5.878-19.922,17.135-19.19,22.047
						c2.091,14.017-1.349,22.001-1.349,22.001s-0.94,4.186-2.758,8.393c-1.815,4.206-3.044,10.769-3.044,10.769
						c-1.437,22.379,26.826,41.244,54.618,47.512c27.781,6.27,49.983-4.509,49.983-4.509c20.332-8.449,22.395-25.38,22.395-25.38
						C183.125,162.12,194.637,153.346,194.884,140.665z"/>
					<path style="fill:#B7723C;" d="M195.371,140.782c-0.036-4.105-1.08-8.145-4.976-10.098c-3.122-1.562-6.716-0.293-9.342,1.617
						c-2.29,1.677-3.65,4.252-5.153,6.578c-1.768,2.758-3.74,5.422-6.004,7.796c-0.424,0.439-0.886,0.855-1.375,1.23
						c-0.415,0.182-0.292,0.291,0.353,0.332c0.365-1.368,0.981-2.734,1.446-4.076c1.441-4.21,2.615-8.507,3.564-12.852
						c2.626-12.06,2.817-25.52-2.997-36.731c-3.07-5.949-7.582-11.019-9.215-17.666c-0.452-1.839-0.842-4.919,0.594-6.514
						c0.219-0.241-0.697-0.641-0.898-0.448c-4.553,4.165-8.006,9.686-10.119,15.467c0.32,0.1,0.646,0.207,0.966,0.299
						c-0.985-6.367-0.079-13.354,3.115-19.049c0.145-0.257-0.714-0.476-0.868-0.434c-10.352,3.056-20.515,7.273-29.066,13.979
						c-2.733,2.14-5.698,4.728-7.478,7.769c0.323,0.128,0.642,0.24,0.974,0.367c0.963-7.725,5.325-15.136,10.22-21.073
						c0.216-0.263-0.69-0.627-0.892-0.455c-12.209,10.444-28.983,16.815-44.991,18.148c0.24,0.16,0.491,0.318,0.729,0.488
						c5.741-3.411,10.706-8.402,15.306-13.19c0.249-0.266-0.643-0.537-0.834-0.486c-12.976,4.194-25.127,12.054-36.216,19.876
						c0.31,0.136,0.618,0.274,0.929,0.404c1.782-5.598,4.594-12.36,9.67-15.831c0.24-0.163-0.64-0.607-0.888-0.461
						c-7.168,4.469-14.682,10.748-18.456,18.481c-1.606,3.295-0.3,7.111-0.136,10.593c0.186,4.219-0.195,8.511-1.222,12.615
						c-1.558,6.213-4.312,12.034-5.844,18.258c-1.598,6.453-0.203,12.726,2.853,18.573c7.914,15.155,25.589,24.368,41.068,29.698
						c16.827,5.803,34.816,6.479,51.967,1.658c12.424-3.503,24.214-10.441,29.568-22.698c0.764-1.746,1.354-3.589,1.709-5.457
						c0.13-0.72,0.63,0.049,1.432,0.363c1.263,0.496,2.833,0.796,4.196,0.799c9.735,0.005,15.87-8.723,16.309-17.804
						c0.011-0.343-0.969-0.588-0.968-0.358c-0.504,10.525-9.828,21.647-21.181,16.197c-0.074-0.04-0.652-0.26-0.684-0.044
						c-1.577,12.123-12.173,20.432-22.378,25.338c-12.543,6.039-27.934,7.369-41.556,5.874
						c-20.411-2.243-43.571-12.428-55.985-29.322c-4.482-6.102-7.281-13.994-5.603-21.548c1.427-6.384,4.11-12.402,5.929-18.673
						c0.898-3.104,1.224-6.371,1.355-9.595c0.168-4.062-1.416-8.901-0.383-12.763c1.024-3.832,4.304-7.237,6.919-10.011
						c3.523-3.746,7.618-7.003,11.976-9.715c-0.293-0.155-0.596-0.308-0.888-0.461c-5.108,3.501-7.952,10.331-9.747,15.94
						c-0.1,0.288,0.736,0.54,0.928,0.402c11.047-7.79,23.178-15.644,36.097-19.819c-0.28-0.16-0.554-0.321-0.83-0.474
						c-4.609,4.781-9.564,9.778-15.309,13.184c-0.278,0.169,0.612,0.503,0.743,0.496c16.1-1.34,33.018-7.718,45.305-18.223
						c-0.303-0.15-0.604-0.307-0.892-0.455c-4.923,5.974-9.326,13.398-10.302,21.161c-0.038,0.303,0.813,0.636,0.974,0.367
						c1.765-3.03,4.711-5.522,7.394-7.688c8.398-6.752,18.707-10.903,28.938-13.913c-0.284-0.148-0.573-0.289-0.866-0.439
						c-3.213,5.74-4.097,12.741-3.116,19.167c0.04,0.239,0.871,0.575,0.973,0.308c2.108-5.738,5.543-11.257,10.052-15.383
						c-0.302-0.149-0.597-0.299-0.898-0.448c-4.157,4.649,2.391,14.51,4.773,18.209c7.637,11.835,9.705,24.025,7.664,37.954
						c-1.122,7.634-4.009,14.544-5.939,21.928c-0.34,1.307,2.061-0.098,2.143-0.167c4.537-3.849,6.674-9.714,10.659-13.985
						c1.991-2.132,4.887-3.524,7.829-3.313c4.888,0.354,5.87,6.236,5.908,9.964C194.401,140.818,195.372,141.113,195.371,140.782z"
						/>
				</g>
				<g>
					<path style="fill:#FCD5B7;" d="M194.884,140.665c0.244-12.686-11.235-13.437-16.971-4.023
						c-5.737,9.414-10.056,12.877-9.517,11.413c9.148-24.739,9.152-43.994-0.943-58.576c-10.105-14.584-5.638-19.304-5.638-19.304
						c-6.608,5.763-10.082,15.427-10.082,15.427c-1.916-10.385,3.116-19.111,3.116-19.111
						c-28.747,8.283-36.445,21.676-36.445,21.676c0.962-9.938,10.259-21.115,10.259-21.115
						c-18.349,16.042-45.151,18.174-45.151,18.174c5.831-3.297,15.306-13.189,15.306-13.189
						c-14.476,4.516-36.161,19.849-36.161,19.849c3.594-11.814,9.711-15.887,9.711-15.887c-9.709,5.878-19.922,17.135-19.19,22.047
						c2.091,14.017-1.349,22.001-1.349,22.001s-0.94,4.186-2.758,8.393c-1.815,4.206-3.044,10.769-3.044,10.769
						c-1.437,22.379,26.826,41.244,54.618,47.512c27.781,6.27,49.983-4.509,49.983-4.509c20.332-8.449,22.395-25.38,22.395-25.38
						C183.125,162.12,194.637,153.346,194.884,140.665z"/>
					<path style="fill:#B7723C;" d="M195.401,140.695c-0.041-4.203-1.153-8.599-5.438-10.225c-3.046-1.157-6.417,0.121-8.901,1.93
						c-2.291,1.676-3.67,4.244-5.173,6.582c-1.663,2.582-3.514,5.077-5.582,7.362c-0.546,0.601-1.14,1.171-1.777,1.66
						c-0.402,0.184-0.29,0.267,0.337,0.25c-0.058-0.434,0.867-2.473,1.019-2.897c1.503-4.248,2.737-8.58,3.762-12.966
						c2.922-12.609,3.07-26.081-2.704-37.904c-3.053-6.247-7.951-11.331-9.374-18.333c-0.345-1.718-0.551-4.459,0.735-5.893
						c0.193-0.213-0.777-0.357-0.98-0.167c-4.55,4.16-7.991,9.699-10.111,15.474c0.346,0.02,0.689,0.039,1.033,0.049
						c-0.981-6.375-0.102-13.344,3.095-19.044c0.17-0.32-0.723-0.288-0.857-0.251c-10.357,3.054-20.521,7.279-29.081,13.989
						c-2.745,2.144-5.707,4.721-7.494,7.773c0.338,0.038,0.672,0.074,1.014,0.111c0.963-7.725,5.334-15.115,10.236-21.066
						c0.195-0.236-0.8-0.325-0.994-0.16c-11.125,9.517-25.284,14.854-39.576,17.347c-1.49,0.26-2.984,0.473-4.476,0.64
						c-0.238,0.025-0.473,0.052-0.701,0.065c1.959-0.17,3.293-1.45,4.827-2.661c3.944-3.084,7.603-6.629,11.074-10.245
						c0.229-0.239-0.748-0.274-0.849-0.241C85.477,76.067,73.32,83.926,62.223,91.752c0.319,0.053,0.632,0.107,0.949,0.157
						c1.761-5.504,4.612-12.341,9.636-15.779c0.328-0.23-0.658-0.396-0.874-0.259C64.76,80.335,57.231,86.625,53.46,94.346
						c-1.602,3.296-0.319,7.101-0.163,10.598c0.19,4.049-0.162,8.156-1.075,12.105c-1.408,6.09-4.16,11.778-5.737,17.813
						c-1.789,6.845-0.663,13.267,2.596,19.515c8.063,15.448,26.238,24.708,42.057,29.961c16.557,5.494,34.206,5.938,50.995,1.222
						c13.731-3.865,29.403-13.194,31.41-28.706c-0.296,0.031-0.59,0.07-0.888,0.098C184.298,162.54,194.85,152.339,195.401,140.695
						c0.012-0.297-1.018-0.358-1.039-0.064c-0.488,10.477-9.606,21.517-20.961,16.062c-0.166-0.069-0.854-0.189-0.893,0.102
						c-1.564,12.078-12.204,20.476-22.402,25.312c-13.68,6.492-30.478,7.615-45.189,5.233c-19.468-3.148-41.253-13.153-52.81-29.706
						c-4.189-5.98-6.673-13.558-5.059-20.808c1.425-6.372,4.11-12.389,5.927-18.664c1.6-5.542,1.591-11.486,1.073-17.186
						c-0.283-3.269-0.483-4.932,1.153-7.911c1.656-3.025,4.105-5.65,6.496-8.105c2.774-2.836,5.893-5.34,9.16-7.591
						c0.324-0.217,1.71-2.016,0.665-1.199c-0.398,0.314-0.769,0.67-1.136,1.011c-4.125,3.896-6.542,9.363-8.247,14.673
						c-0.081,0.281,0.837,0.241,0.963,0.163c11.032-7.794,23.163-15.644,36.064-19.814c-0.277-0.08-0.559-0.164-0.841-0.246
						c-4.595,4.782-9.529,9.749-15.248,13.144c-0.34,0.202,0.461,0.341,0.564,0.335c16.186-1.345,33.159-7.734,45.516-18.306
						c-0.337-0.054-0.663-0.109-0.994-0.16c-4.909,5.97-9.301,13.403-10.276,21.172c-0.036,0.289,0.887,0.312,1.007,0.104
						c1.765-3.025,4.713-5.523,7.389-7.681c8.384-6.756,18.686-10.895,28.918-13.912c-0.284-0.081-0.566-0.164-0.856-0.241
						c-3.211,5.733-4.123,12.735-3.132,19.157c0.048,0.318,0.935,0.344,1.033,0.049c2.105-5.73,5.55-11.23,10.058-15.355
						c-0.317-0.055-0.662-0.104-0.98-0.167c-4.413,4.928,3.151,15.762,5.622,19.412c7.423,10.974,8.704,23.915,6.821,36.763
						c-1.121,7.63-4.001,14.538-5.934,21.925c-0.284,1.11,2.224-0.463,2.224-0.463c4.383-4.054,6.644-9.69,10.662-13.977
						c2.728-2.928,7.26-4.499,10.692-1.787c2.521,1.989,2.928,5.72,2.949,8.666C194.374,140.939,195.402,140.975,195.401,140.695z"
						/>
				</g>
				<path style="opacity:0.7;fill:#ECC5AA;" d="M75.958,162.235c0,0,9.8,6.494,24.252,4.433c14.466-2.048,17.805-3.544,18.196-6.122
					c0.396-2.602,1.069-0.232,4.254,1.55c3.196,1.797,1.98,2.118-0.21,1.912c-1.591-0.154-2.652,11.763-14.822,12.289
					c-12.171,0.532-18.816-6.89-21.482-8.033C83.468,167.119,78.516,165.143,75.958,162.235z"/>
				<g>
					<g>
						<path style="fill:#B7723C;" d="M179.285,153.058c0,0-0.102-0.024-0.281-0.115c-0.172-0.078-0.435-0.237-0.712-0.48
							c-0.284-0.252-0.574-0.621-0.826-1.09c-0.221-0.479-0.444-1.062-0.489-1.708c-0.083-0.651-0.046-1.361,0.056-2.102
							c0.1-0.731,0.268-1.495,0.533-2.258c0.12-0.39,0.26-0.77,0.423-1.136c0.167-0.391,0.298-0.764,0.504-1.157
							c0.19-0.36,0.378-0.737,0.563-1.106l0.674-1.12c0.474-0.714,1.003-1.399,1.602-2.023c0.29-0.321,0.648-0.578,0.971-0.854
							c0.362-0.219,0.689-0.502,1.117-0.649c0.751-0.398,1.756-0.463,2.505-0.076c0.776,0.377,1.22,1.063,1.446,1.664
							c0.289,0.611,0.348,1.207,0.427,1.73c0.015,0.511,0.074,0.968,0.042,1.326c-0.042,0.748-0.083,1.159-0.083,1.159
							s-0.044-0.421-0.119-1.143c-0.024-0.363-0.135-0.794-0.225-1.277c-0.14-0.477-0.281-1.036-0.563-1.539
							c-0.249-0.528-0.675-1.015-1.223-1.226c-0.54-0.215-1.21-0.139-1.834,0.208c-0.316,0.121-0.605,0.388-0.911,0.583
							c-0.273,0.273-0.567,0.499-0.828,0.796c-0.536,0.564-1.028,1.209-1.466,1.889l-0.633,1.02
							c-0.192,0.363-0.383,0.738-0.579,1.093c-0.325,0.71-0.709,1.427-0.949,2.146c-0.284,0.709-0.505,1.405-0.662,2.09
							c-0.147,0.671-0.229,1.317-0.211,1.909c0.004,0.61,0.121,1.143,0.265,1.606c0.171,0.453,0.391,0.827,0.618,1.105
							C178.89,152.877,179.285,153.058,179.285,153.058z"/>
					</g>
					<g>
						<path style="fill:#B7723C;" d="M179.426,142.29c0,0-0.016,0.149-0.047,0.423c-0.033,0.134-0.051,0.293-0.051,0.475
							c-0.005,0.177-0.04,0.366-0.03,0.586c0,0.215-0.005,0.45,0.026,0.692c0.009,0.232,0.058,0.487,0.101,0.736
							c0.036,0.258,0.135,0.501,0.209,0.764c0.084,0.241,0.186,0.488,0.319,0.704c0.138,0.208,0.277,0.431,0.462,0.582
							c0.17,0.173,0.362,0.299,0.559,0.405c0.105,0.043,0.21,0.081,0.31,0.132c0.113,0.019,0.223,0.037,0.33,0.06
							c0.215,0.051,0.433,0.01,0.646,0.026c0.21-0.027,0.403-0.058,0.581-0.087c0.172-0.017,0.314-0.082,0.452-0.111
							c0.264-0.075,0.408-0.104,0.408-0.104s-0.109,0.105-0.323,0.275c-0.099,0.088-0.218,0.223-0.395,0.307
							c-0.166,0.1-0.365,0.207-0.59,0.299c-0.24,0.051-0.5,0.18-0.799,0.165c-0.155-0.003-0.304,0.001-0.459,0.002
							c-0.167-0.03-0.324-0.073-0.495-0.109c-0.304-0.119-0.644-0.269-0.891-0.522c-0.287-0.215-0.488-0.507-0.677-0.793
							c-0.167-0.313-0.295-0.618-0.384-0.939c-0.09-0.32-0.145-0.632-0.157-0.938c-0.05-0.616,0.051-1.175,0.186-1.634
							c0.045-0.234,0.165-0.438,0.231-0.617c0.071-0.186,0.158-0.32,0.235-0.433C179.33,142.41,179.426,142.29,179.426,142.29z"/>
					</g>
				</g>
				<g>
					<g>
						<path style="fill:#B7723C;" d="M90.774,139.96c0,0,0.077,0.541-0.121,1.475c-0.109,0.461-0.3,1.011-0.632,1.604
							c-0.309,0.588-0.799,1.197-1.441,1.729c-0.636,0.542-1.416,1.027-2.297,1.37c-0.884,0.356-1.727,0.669-2.482,1.22
							c-0.746,0.535-1.354,1.279-1.581,2.162c-0.233,0.891-0.062,1.869,0.354,2.751c0.82,1.79,2.521,3.15,4.254,3.866
							c0.397,0.172,0.913,0.308,1.354,0.467c0.447,0.125,0.881,0.253,1.32,0.346c0.873,0.186,1.714,0.278,2.491,0.294
							c1.566,0.021,2.876-0.206,3.746-0.499c0.882-0.287,1.351-0.559,1.351-0.559s-0.415,0.357-1.273,0.742
							c-0.861,0.387-2.168,0.833-3.81,0.908c-0.817,0.038-1.707-0.002-2.64-0.143c-0.462-0.057-0.949-0.163-1.431-0.266
							c-0.478-0.138-0.908-0.23-1.444-0.435c-1.965-0.72-3.854-2.199-4.862-4.289c-0.477-1.037-0.69-2.279-0.368-3.439
							c0.291-1.174,1.135-2.075,2.012-2.671c0.46-0.282,0.902-0.538,1.384-0.727c0.467-0.188,0.936-0.311,1.349-0.469
							c0.847-0.263,1.59-0.648,2.203-1.101c1.246-0.894,1.94-2.063,2.235-2.92C90.756,140.503,90.774,139.96,90.774,139.96z"/>
					</g>
				</g>
				<g>
					<path style="fill:#B7723C;" d="M77.962,163.673c0,0,0.145,0.09,0.447,0.236c0.295,0.151,0.742,0.351,1.305,0.599
						c0.563,0.238,1.259,0.511,2.074,0.786c0.813,0.28,1.729,0.548,2.75,0.826c1.017,0.265,2.123,0.52,3.308,0.716
						c0.601,0.108,1.208,0.185,1.833,0.264c0.626,0.084,1.268,0.167,1.911,0.204c1.308,0.145,2.663,0.156,4.041,0.196
						c0.682-0.014,1.376-0.022,2.073-0.031c0.694-0.02,1.394-0.1,2.084-0.141c0.697-0.028,1.395-0.108,2.085-0.198
						c0.687-0.094,1.394-0.158,2.048-0.277c1.375-0.226,2.725-0.454,4.03-0.667c1.314-0.193,2.539-0.499,3.728-0.725
						c0.583-0.12,1.164-0.225,1.711-0.357c0.548-0.15,1.085-0.292,1.585-0.425c0.516-0.138,1.003-0.271,1.462-0.389
						c0.459-0.151,0.885-0.307,1.289-0.436c0.831-0.238,1.484-0.572,2.049-0.819c0.548-0.278,0.974-0.53,1.229-0.731
						c0.256-0.205,0.362-0.349,0.362-0.349s-0.087,0.153-0.327,0.393c-0.108,0.14-0.28,0.242-0.467,0.396
						c-0.209,0.133-0.419,0.331-0.692,0.457c-0.546,0.295-1.199,0.7-2.006,1.012c-0.4,0.17-0.822,0.352-1.273,0.55
						c-0.458,0.168-0.946,0.309-1.453,0.476c-0.504,0.159-1.034,0.328-1.581,0.514c-0.55,0.154-1.129,0.292-1.722,0.439
						c-1.182,0.3-2.437,0.673-3.737,0.881c-1.298,0.255-2.637,0.502-4.007,0.77c-0.702,0.117-1.399,0.196-2.108,0.286
						c-0.699,0.105-1.41,0.189-2.128,0.23c-0.711,0.037-1.419,0.109-2.128,0.12c-0.707,0.009-1.41,0.016-2.116,0.021
						c-1.41-0.043-2.791-0.117-4.122-0.286c-0.667-0.068-1.308-0.151-1.947-0.282c-0.639-0.107-1.25-0.212-1.842-0.362
						c-1.204-0.264-2.312-0.577-3.329-0.891c-1.021-0.321-1.934-0.684-2.728-1.026c-0.793-0.346-1.478-0.673-2.029-0.964
						C78.524,164.105,77.962,163.673,77.962,163.673z"/>
				</g>
				<g>
					<path style="fill:#FFF8F4;" d="M87.013,167.048c1.802,1.088,4.083,2.413,6.921,3.979c10.537,5.795,18.682,6.986,24.934-7.414
						c-2.334,1.05-6.751,2.467-15.135,3.784C96.921,168.473,91.27,167.975,87.013,167.048z"/>
					<path style="fill:#B7723C;" d="M86.566,167.162c5.56,3.347,12.486,8.287,19.33,8.122c7.005-0.166,10.809-5.737,13.458-11.63
						c0.146-0.32-0.738-0.241-0.863-0.179c-9.384,4.122-21.251,5.441-31.226,3.388c-0.305-0.061-1.16,0.235-0.514,0.366
						c10.412,2.145,22.717,0.811,32.477-3.479c-0.291-0.065-0.577-0.12-0.868-0.186c-2.636,5.862-6.52,11.876-13.79,11.216
						c-6.083-0.55-12.029-4.79-17.11-7.845C87.224,166.793,86.25,166.966,86.566,167.162z"/>
				</g>
				<g>
					<path style="fill:#B7723C;" d="M119.279,159.87c0,0,0.035,0.091,0.122,0.235c0.074,0.144,0.225,0.321,0.356,0.531
						c0.1,0.101,0.199,0.197,0.28,0.297c0.077,0.118,0.223,0.199,0.328,0.308c0.121,0.085,0.22,0.208,0.358,0.294l0.413,0.261
						c0.123,0.103,0.258,0.188,0.426,0.252c0.149,0.055,0.288,0.149,0.437,0.215c0.142,0.07,0.267,0.182,0.414,0.234
						c0.146,0.042,0.274,0.104,0.398,0.167c0.501,0.232,0.835,0.476,0.835,0.476s-0.373,0.094-0.97,0.104
						c-0.151-0.001-0.305,0.003-0.479-0.01c-0.17,0.008-0.344-0.07-0.521-0.117c-0.181-0.052-0.363-0.102-0.551-0.177
						c-0.188-0.051-0.371-0.15-0.545-0.279c-0.171-0.123-0.332-0.244-0.5-0.367c-0.169-0.114-0.27-0.309-0.397-0.452
						c-0.26-0.293-0.365-0.677-0.467-0.957c-0.046-0.325-0.061-0.566-0.013-0.757C119.224,159.961,119.279,159.87,119.279,159.87z"
						/>
				</g>
				<path style="opacity:0.7;fill:#ECC5AA;" d="M54.534,138.619c0,0,11.451,0.406,13.195,10.939c0,0,0.682-0.892,0.272-2.507
					c0,0,9.166,3.866,13.411-4.723c4.24-8.596,3.984-25.931-6.751-28.711c-10.725-2.773-18.704,8.165-16.47,24.052
					C58.192,137.67,55.618,138.063,54.534,138.619z"/>
				<g>
					<g>
						<path style="opacity:0.7;fill:#EBC6AB;" d="M137.275,145.257c-0.347,0.092-0.809-0.323-0.643-0.668
							c0.186-0.38,0.346-0.76,0.513-1.15c0,0,0.003-0.033,0.003-0.045c3.215-8.77,2.642-21.671-5.734-27.202
							c-7.4-4.881-18.577,2.224-19.07,11.381c0.097-1.707,0.426-3.469,1.013-5.738c-3.103,4.674-5.58,21.291,3.135,28.249
							c1.893,1.51,5.778,3.561,11.37,2.457c0,0-0.71,4.414-0.654,5.255c0.66-2.762,3.107-6.906,5.079-8.466
							c1.238-0.981,2.557-1.652,3.92-2.128c2.3-1.031,4.781-1.415,7.482-1.852C141.725,144.439,139.288,144.7,137.275,145.257z"/>
						<path style="fill:#B46B39;" d="M140.769,145.289c-2.289,0.112-4.408,0.56-6.359,1.476c1.279-1.839,1.926-5.045,2.24-6.39
							c0.974-4.247,0.28-8.406-0.675-12.54c-0.892-3.808-3.64-7.386-6.987-9.334c-3.544-2.056-7.386-1.214-10.544,1.067
							c-2.959,2.13-4.56,6.838-5.477,10.19c-1.222,4.463-0.727,9.409,0.58,13.811c0.999,3.309,3.926,7.041,7.47,7.839
							c1.817,0.407,5.974,1.083,8.17-0.127c-0.91,1.503-1.498,3.24-1.454,4.802c0.005,0.014,0.03,0.012,0.027-0.01
							c0.207-2.793,2.391-5.589,4.438-7.277c2.538-2.104,5.391-2.843,8.568-3.316C140.879,145.457,140.9,145.284,140.769,145.289z"
							/>
						<path style="fill:#FFFFFF;" d="M131.278,148.763c-0.547,0.454-1.066,1.026-1.532,1.669c-2.309,1.537-6.934,1.061-9.23,0.122
							c-3.686-1.499-5.977-4.962-6.816-8.728c-1.653-7.344-0.652-14.807,4.066-20.858c2.658-3.419,7.337-3.717,10.957-1.952
							c3.462,1.679,5.773,5.447,6.905,8.972c0.968,3.005,1.252,6.145,1.133,9.304c-0.079,2.029-0.559,4.318-1.292,6.222
							c-0.329,0.861-0.948,2.596-1.786,3.621C132.85,147.587,132.043,148.115,131.278,148.763z"/>
						<path style="fill:#CDCCCC;" d="M136.332,130.803c0.1,2.885-0.231,5.748-0.912,8.314c-0.987,3.662-3.019,6.696-6.585,8.322
							c-3.265,1.491-6.947,1.761-10.019-0.335c-6.07-4.153-6.475-12.489-4.516-19.801c-1.619,4.583-1.715,9.581-0.601,14.523
							c0.84,3.766,3.131,7.229,6.816,8.728c2.297,0.939,6.922,1.415,9.23-0.122c0.466-0.643,0.985-1.215,1.532-1.669
							c0.765-0.647,1.571-1.176,2.404-1.629c0.838-1.025,1.457-2.76,1.786-3.621c0.733-1.903,1.213-4.192,1.292-6.222
							C136.834,135.107,136.727,132.936,136.332,130.803z"/>
					</g>
					<path style="fill:#B46B39;" d="M132.641,118.655c-2.104-1.69-4.454-2.663-7.168-2.59c-2.413,0.053-4.769,0.896-6.773,2.188
						c-4.906,3.122-6.461,9.089-6.724,14.555c-0.001,0.077,0.118,0.099,0.128,0.021c0.611-5.163,2.078-10.666,6.515-13.844
						c1.867-1.353,4.127-2.136,6.406-2.335c2.805-0.242,5.142,0.845,7.531,2.15C132.641,118.843,132.7,118.721,132.641,118.655z"/>
				</g>
				<g>
					<g style="opacity:0.7;">
						<path style="fill:#ECC5AA;" d="M108.159,113.126c-2.281,4.018-0.807,3.636,3.12,1.798c3.924-1.842,15.487-12.262,39.109,0.753
							c3.712,2.055-3.94-13.167-16.696-15.547C120.947,97.747,111.54,107.212,108.159,113.126z"/>
					</g>
					<g>
						<path style="fill:#554033;" d="M110.037,110.687c-2.012,3.265-0.693,2.96,2.783,1.48c3.487-1.493,13.717-9.947,34.757,0.752
							c3.297,1.677-3.557-10.748-14.887-12.735C121.354,98.2,113.011,105.875,110.037,110.687z"/>
						<path style="fill:#2D2017;" d="M109.546,110.55c-3.631,6.256,7.336-0.1,9.198-0.874c4.722-1.934,9.842-2.171,14.837-1.415
							c4.8,0.722,9.373,2.618,13.694,4.752c0.442,0.226,0.877,0.344,1.36,0.242c1.409-0.302-2.368-5.087-2.56-5.31
							c-2.945-3.529-6.925-6.054-11.265-7.472C125.314,97.376,114.761,102.465,109.546,110.55c-0.124,0.187,0.802,0.553,0.989,0.27
							c5.501-8.512,16.268-13.046,25.992-9.295c4,1.551,7.468,4.655,9.966,8.082c0.586,0.802,1.401,1.95,1.408,3.017
							c-0.004-0.515-6.957-2.828-7.682-3.077c-6.001-2.121-12.493-2.861-18.734-1.438c-2.344,0.535-4.563,1.49-6.682,2.594
							c-1.513,0.789-6.294,3.627-4.269,0.117C110.653,110.618,109.715,110.256,109.546,110.55z"/>
					</g>
					<g style="opacity:0.6;">
						<path style="fill:#5E5F5E;" d="M119.103,106.518c-4.851,1.757-6.364,1.195-4.563-0.975c-1.997,1.727-3.532,3.583-4.502,5.144
							c-2.012,3.265-0.693,2.96,2.783,1.48c3.487-1.493,13.717-9.947,34.757,0.752c1.671,0.849,0.745-1.958-2.063-5.147
							C137.221,102.769,127.839,103.37,119.103,106.518z"/>
					</g>
					<path style="opacity:0.5;fill:#FFFFFF;" d="M115.537,105.808c0,0,5.871-4.748,12.195-5.209c6.318-0.46,9.602,2.325,9.602,2.325
						S128.885,98.255,115.537,105.808z"/>
				</g>
				<path style="opacity:0.7;fill:#F9CDA7;" d="M128.144,158.707c-0.167-8.464,14.704-15.097,21.65-11.116
					C155.843,151.063,128.285,165.828,128.144,158.707z"/>
				<g>
					<g>
						<g>
							<path style="fill:#FFFFFF;" d="M80.105,139.939c-0.702,1.902-1.959,3.425-3.402,4.863c-1.664,0.635-3.413,1.007-5.282,0.919
								c-1.794-0.088-3.643-0.503-5.312-1.211c-0.725-1.022-1.638-1.933-2.568-2.676c-0.715-0.585-1.487-1.053-2.301-1.44
								c-1.106-1.868-1.582-4.073-1.622-6.265c-0.06-3.581,0.927-7.268,2.245-10.593c1.207-3.023,3.133-6.322,6.581-7.461
								c0.087-0.022,0.179-0.039,0.261-0.063c2.598-0.221,5.075,0.324,7.142,2.065c2.388,2.005,3.641,5.022,4.413,7.857
								c0.796,2.975,1.057,6.1,0.839,9.151C80.977,136.739,80.681,138.366,80.105,139.939z"/>
							<path style="fill:#CDCCCC;" d="M81.099,135.086c0.218-3.052-0.043-6.177-0.839-9.151c-0.773-2.835-2.025-5.853-4.413-7.857
								c-2.066-1.741-4.544-2.286-7.142-2.065c-0.082,0.024-0.174,0.041-0.261,0.063c-0.049,0.028-0.091,0.041-0.144,0.056
								c4.711-0.415,8.413,4.396,10.159,8.185c1.899,4.148,2.567,9.115,1.026,13.453c-1.153,3.299-4.175,6.829-8.237,6.615
								c-2.389-0.111-4.488-1.322-6.33-2.682c-1.652-1.211-3.076-2.695-4.097-4.424c-0.47-0.812-0.854-1.644-1.185-2.505
								c0.12,1.98,0.601,3.939,1.603,5.62c0.813,0.388,1.586,0.855,2.301,1.44c0.931,0.743,1.844,1.653,2.568,2.676
								c1.669,0.708,3.518,1.123,5.312,1.211c1.869,0.088,3.618-0.284,5.282-0.919c1.443-1.439,2.7-2.961,3.402-4.863
								C80.681,138.366,80.977,136.739,81.099,135.086z"/>
							<path style="fill:#B46B39;" d="M81.434,135.389c0.406-3.33-0.081-6.811-0.988-10.03c-0.826-2.931-2.194-5.898-4.692-7.897
								c-7.826-6.257-13.664,3.081-15.402,9.276c-0.951,3.411-1.561,7.018-0.81,10.524c0.19,0.916,0.513,1.775,0.919,2.573
								c-1.156-0.457-2.396-0.761-3.654-1.005c-0.082-0.009-0.096,0.1-0.013,0.123c5.405,1.415,7.957,3.926,10.532,8.446
								c0.037,0.063,0.163,0.049,0.146-0.043c-0.14-0.78-0.451-1.554-0.871-2.276c2.931,1.136,6.534,1.821,9.449,0.487
								c0.856-0.394,1.581-0.923,2.177-1.558C80.366,141.759,81.095,138.251,81.434,135.389z M79.772,139.728
								c-0.692,1.869-1.928,3.374-3.336,4.797c-1.635,0.639-3.342,1.003-5.169,0.926c-1.754-0.081-3.56-0.489-5.188-1.189
								c-0.703-0.999-1.604-1.891-2.502-2.639c-0.689-0.568-1.449-1.035-2.258-1.409c-1.07-1.843-1.531-4.022-1.561-6.186
								c-0.047-3.533,0.918-7.172,2.219-10.468c1.19-2.976,3.079-6.24,6.452-7.368c0.089-0.03,0.175-0.047,0.263-0.076
								c2.541-0.213,4.961,0.324,6.966,2.023c2.325,1.981,3.557,4.957,4.294,7.764c0.774,2.926,1.02,6.016,0.809,9.022
								C80.638,136.551,80.339,138.172,79.772,139.728z"/>
							<path style="fill:#B46B39;" d="M67.694,115.347c0,0,0.4-0.29,1.201-0.566c0.797-0.281,2.037-0.518,3.503-0.28
								c0.372,0.051,0.742,0.158,1.12,0.264c0.372,0.146,0.776,0.255,1.149,0.46c0.374,0.188,0.782,0.362,1.14,0.621
								c0.382,0.235,0.755,0.5,1.104,0.81c0.35,0.297,0.699,0.596,1.024,0.942l0.494,0.521c0.207,0.192,0.303,0.37,0.465,0.552
								c0.602,0.715,1.137,1.595,1.592,2.465c0.191,0.456,0.423,0.888,0.586,1.349c0.15,0.465,0.314,0.923,0.457,1.378
								c0.117,0.468,0.236,0.929,0.355,1.384c0.094,0.464,0.179,0.915,0.26,1.364c0.142,0.896,0.234,1.772,0.277,2.614
								c0.047,0.826,0.056,1.614,0.043,2.332c-0.012,1.458-0.154,2.65-0.266,3.488c-0.112,0.837-0.207,1.307-0.207,1.307
								s0.038-0.483,0.066-1.315c0.052-0.839,0.048-2.037-0.003-3.472c-0.025-0.716-0.077-1.494-0.171-2.297
								c-0.075-0.826-0.218-1.672-0.356-2.542c-0.095-0.445-0.188-0.884-0.281-1.337c-0.122-0.434-0.249-0.882-0.362-1.329
								c-0.145-0.439-0.316-0.878-0.472-1.316c-0.171-0.447-0.386-0.854-0.578-1.284c-0.422-0.83-0.866-1.62-1.472-2.367
								c-0.143-0.178-0.287-0.405-0.428-0.533l-0.466-0.499c-0.3-0.344-0.636-0.64-0.969-0.919
								c-0.323-0.307-0.681-0.547-1.022-0.796c-0.328-0.265-0.705-0.449-1.045-0.653c-0.34-0.209-0.717-0.325-1.063-0.488
								c-0.357-0.11-0.707-0.232-1.042-0.304c-0.693-0.14-1.337-0.197-1.915-0.177c-0.573,0.015-1.074,0.09-1.474,0.195
								C68.128,115.108,67.694,115.347,67.694,115.347z"/>
						</g>
					</g>
					<g>
						<g style="opacity:0.7;">
							<path style="fill:#ECC5AA;" d="M86.76,116.834c0.222-1.132-0.394-2.375-0.867-3.398c-1.403-3.047-3.403-6.102-6.434-8.407
								c-3.247-2.466-8.074-3.339-12.62-2.109c-2.021,0.549-3.732,1.556-5.221,2.688c-1.588,1.222-3.117,2.7-4.096,4.218
								c-0.054,0.083,0.096,0.14,0.173,0.081c0.019,0.003,0.032,0.006,0.045,0.001c2.429-1.065,4.703-1.879,7.534-1.85
								c2.494,0.042,4.857,0.783,6.93,1.703c2.118,0.932,3.997,2.132,5.767,3.391c1.085,0.755,2.113,1.547,3.171,2.327
								c1.035,0.781,2.076,1.692,3.276,2.36c0.015,0.037,0.059,0.066,0.099,0.087c0.041,0.009,0.072,0.014,0.097,0.023
								c0.097,0.054,0.203,0.105,0.308,0.156c0.153,0.081,0.361,0.019,0.45-0.08C86.104,117.962,86.632,117.474,86.76,116.834z"/>
						</g>
						<g>
							<path style="fill:#554033;" d="M84.901,114.43c0.191-0.978-0.334-2.041-0.742-2.936c-1.199-2.603-2.927-5.246-5.539-7.221
								c-2.791-2.121-6.938-2.875-10.857-1.813c-1.736,0.464-3.208,1.337-4.49,2.317c-1.363,1.037-2.679,2.313-3.523,3.621
								c-0.04,0.068,0.077,0.127,0.154,0.064c0.014,0.007,0.033,0.01,0.039,0.002c2.093-0.91,4.051-1.617,6.479-1.579
								c2.146,0.022,4.186,0.661,5.965,1.452c1.819,0.805,3.433,1.837,4.947,2.918c0.936,0.653,1.84,1.338,2.739,2.009
								c0.9,0.666,1.793,1.454,2.82,2.034c0.021,0.029,0.045,0.05,0.088,0.062c0.033,0.009,0.059,0.013,0.059,0.013
								c0.109,0.058,0.188,0.106,0.288,0.147c0.128,0.073,0.31,0.021,0.385-0.073C84.342,115.4,84.796,114.977,84.901,114.43z"/>
							<path style="fill:#2D2017;" d="M85.394,114.562c-0.102-5.234-5.281-10.344-9.88-12.125
								c-6.112-2.366-12.595,0.836-16.251,5.781c-0.106,0.144,0.344,0.344,0.42,0.381c1.232,0.531,2.563-0.657,3.743-1.021
								c5.729-1.771,11.078,1.858,15.435,5.087c1.555,1.145,4.835,4.901,6.527,1.947c0.136-0.225-0.804-0.651-0.964-0.363
								c-0.959,1.672-1.431,0.842-2.211,0.334c-1.903-1.221-3.625-2.746-5.487-4.04c-3.142-2.174-6.65-3.655-10.489-3.916
								c-1.566-0.099-3.127,0.308-4.599,0.762c-1.713,0.527-1.172,0.754,0.125-0.673c0.857-0.939,1.916-1.686,2.957-2.421
								c7.256-5.158,19.528,1.007,19.706,10.005C84.425,114.586,85.396,114.887,85.394,114.562z"/>
						</g>
						<path style="opacity:0.6;fill:#5E5F5E;" d="M84.901,114.43c0.191-0.978-0.334-2.041-0.742-2.936
							c-0.933-2.017-2.183-4.055-3.919-5.803c0.562,0.995,1.29,1.915,1.83,2.914c0.437,0.813,0.944,1.849,0.619,2.753
							c-0.036,0.082-0.171,0.124-0.276,0.085c-1.87-0.639-2.945-1.95-4.369-2.976c-1.691-1.219-3.856-2.348-6.13-2.912
							c-2.249-0.557-4.662-0.791-7.045-0.363c-1.211,0.21-2.262,0.687-3.353,1.113c-0.689,0.663-1.307,1.375-1.768,2.094
							c-0.04,0.068,0.077,0.127,0.154,0.064c0.014,0.007,0.033,0.01,0.039,0.002c2.093-0.91,4.051-1.617,6.479-1.579
							c2.146,0.022,4.186,0.661,5.965,1.452c1.819,0.805,3.433,1.837,4.947,2.918c0.936,0.653,1.84,1.338,2.739,2.009
							c0.9,0.666,1.793,1.454,2.82,2.034c0.021,0.029,0.045,0.05,0.088,0.062c0.033,0.009,0.059,0.013,0.059,0.013
							c0.109,0.058,0.188,0.106,0.288,0.147c0.128,0.073,0.31,0.021,0.385-0.073C84.342,115.4,84.796,114.977,84.901,114.43z"/>
						<path style="opacity:0.5;fill:#FFFFFF;" d="M81.848,109.503c-0.664-1.262-1.418-2.57-2.56-3.623
							c-1.064-1.007-2.882-2.237-4.471-2.776c-3.164-1.073-7.379-0.414-9.344,1.084c-0.06,0.054-0.04,0.127,0.039,0.098
							c3.085-1.011,6.47-1.366,9.536-0.384c1.509,0.477,2.798,1.28,3.879,2.179c1.202,0.987,1.981,2.28,2.795,3.458
							C81.76,109.591,81.874,109.563,81.848,109.503z"/>
					</g>
					<path style="opacity:0.7;fill:#F9CDA7;" d="M48.598,139.789c4.508-2.243,15.736,0.917,18.881,10.507
						C70.611,159.886,44.308,141.923,48.598,139.789z"/>
				</g>
				<path style="opacity:0.7;fill:#F9CDA7;" d="M92.606,133.319c-0.071,2.486,0.32,10.964-5.015,13.24
					c-4.267,1.823,3.913,5.384,7.91-2.014C99.097,137.915,92.733,128.687,92.606,133.319z"/>
				<path style="opacity:0.7;fill:#ECC5AA;" d="M81.819,148.282c-1.561,2.551,5.52,8.325,14.931,4.405
					c9.415-3.914,2.021,7.23-9.118,5.105C79.878,156.32,81.819,148.282,81.819,148.282z"/>
				<g>
					<g style="opacity:0.7;">
						<path style="fill:#ECC5AA;" d="M55.319,104.715c-0.007-12.721,6.189-16.267,6.189-16.267s-1.09,3.015-0.596,5.445
							c0.497,2.425,12.373-7.7,20.921-12.285c3.155-1.685,0.623,1.997-1.595,4.491c-2.209,2.496,16.044,3.538,35.33-4.598
							c0,0-2.048,4.947,0.809,10.593c0.684,1.347,11.07-12.255,30.006-17.969c0,0-1.619,10.391,4.257,18.256
							c1.928,2.587,1.794-3.632,5.184-8.17c3.399-4.545,24.224,23.601,12.571,63.843c9.148-24.739,9.152-43.994-0.943-58.576
							c-10.105-14.584-5.638-19.304-5.638-19.304c-6.608,5.763-10.082,15.427-10.082,15.427
							c-1.916-10.385,3.116-19.111,3.116-19.111c-28.747,8.283-36.445,21.676-36.445,21.676
							c0.962-9.938,10.259-21.115,10.259-21.115c-18.349,16.042-45.151,18.174-45.151,18.174
							c5.831-3.297,15.306-13.189,15.306-13.189c-14.476,4.516-36.161,19.849-36.161,19.849c3.594-11.814,9.711-15.887,9.711-15.887
							c-9.709,5.878-19.922,17.135-19.19,22.047c2.091,14.017-1.349,22.001-1.349,22.001S55.331,117.448,55.319,104.715z"/>
					</g>
				</g>
				<g style="opacity:0.5;">
					<path style="fill:#CDCCCC;" d="M94.366,171.263c1.826-0.854,4.527-1.684,8.551-2.244c6.483-0.895,9.765,0.25,11.44,2.048
						c1.604-1.775,3.099-4.221,4.51-7.454c-2.334,1.05-6.751,2.467-15.135,3.784c-6.812,1.076-12.463,0.578-16.72-0.349
						c1.802,1.088,4.083,2.413,6.921,3.979C94.078,171.107,94.229,171.181,94.366,171.263z"/>
				</g>
				<path style="opacity:0.7;fill:#F9CDA7;" d="M103.916,179.62c3.181,0.161,6.872-0.006,9.954-1.444
					c3.086-1.446,2.941,6.798-4.926,6.574C103.376,184.589,99.909,179.415,103.916,179.62z"/>
				<g style="opacity:0.7;">
					<g>
						<path style="fill:#ECC5AA;" d="M179.328,155.003c-0.393-3.393,5.325-1.097,8.222-10.042c2.888-8.951-2.706-11.243-7.36-7.077
							c-2.172,1.942-3.619,2.419-4.25,1.844c-4.721,7.073-8.022,9.616-7.543,8.327c9.148-24.739,9.152-43.994-0.943-58.576
							c-10.105-14.584-5.638-19.304-5.638-19.304c-6.608,5.763-10.082,15.427-10.082,15.427
							c-1.916-10.385,3.116-19.111,3.116-19.111c-28.747,8.283-36.445,21.676-36.445,21.676
							c0.962-9.938,10.259-21.115,10.259-21.115c-18.349,16.042-45.151,18.174-45.151,18.174
							c5.831-3.297,15.306-13.189,15.306-13.189c-14.476,4.516-36.161,19.849-36.161,19.849c3.594-11.814,9.711-15.887,9.711-15.887
							c-9.709,5.878-19.922,17.135-19.19,22.047c2.091,14.017-1.349,22.001-1.349,22.001s-0.94,4.186-2.758,8.393
							c-1.815,4.206-3.044,10.769-3.044,10.769c-1.437,22.379,26.826,41.244,54.618,47.512c27.781,6.27,49.983-4.509,49.983-4.509
							c20.332-8.449,22.395-25.38,22.395-25.38c3.265,1.713,6.674,1.938,9.806,1.061
							C180.784,157.839,179.52,156.651,179.328,155.003z M142.228,179.134c-20.77,13.336-48.712,9.175-72.319-7.935
							c-23.611-17.115-23.755-27.984-17.807-44.123c5.258-14.235,3.84-13.67,6.929-23.712c3.08-10.035,20.441-18.192,19.301-15.625
							c-1.123,2.561-0.107,4.303,3.082,4.678c21.668,2.548,30.7-9.295,31.005-3.722c0.387,7.244,0.904,12.21,2.86,10.221
							c7.498-7.663,17.635-15.511,22.338-16.268c4.697-0.755,1.105,5.501,8.354,16.177c2.977,4.387,4.235,3.805,4.981-1.511
							c0.757-5.32,5.799,3.788,8.976,17.12C167.025,144.283,162.501,166.131,142.228,179.134z"/>
					</g>
				</g>
			</g>
		</g>
		<g>
			<defs>
				<path id="SVGID_1_" d="M80.105,139.939c-0.702,1.902-1.959,3.425-3.402,4.863c-1.664,0.635-3.413,1.007-5.282,0.919
					c-1.794-0.088-3.643-0.503-5.312-1.211c-0.725-1.022-1.638-1.933-2.568-2.676c-0.715-0.585-1.487-1.053-2.301-1.44
					c-1.106-1.868-1.582-4.073-1.622-6.265c-0.06-3.581,0.927-7.268,2.245-10.593c1.207-3.023,3.133-6.322,6.581-7.461
					c0.087-0.022,0.179-0.039,0.261-0.063c2.598-0.221,5.075,0.324,7.142,2.065c2.388,2.005,3.641,5.022,4.413,7.857
					c0.796,2.975,1.057,6.1,0.839,9.151C80.977,136.739,80.681,138.366,80.105,139.939z"/>
			</defs>
			<clipPath id="SVGID_00000061438902141449264340000004259390623993818784_">
				<use xlink:href="#SVGID_1_"  style="overflow:visible;"/>
			</clipPath>
			<g style="clip-path:url(#SVGID_00000061438902141449264340000004259390623993818784_);">
				<path style="fill:#554033;" d="M82.125,127.897c-0.036,6.244-3.631,11.332-8.031,11.36c-4.402,0.018-7.936-5.035-7.888-11.277
					c0.039-6.262,3.647-11.344,8.041-11.36C78.643,116.597,82.174,121.648,82.125,127.897z"/>
				<path style="fill:#745947;" d="M80.248,128.329c-0.035,4.764-2.777,8.64-6.148,8.666c-3.349,0.015-6.038-3.842-6.016-8.612
					c0.038-4.772,2.792-8.655,6.142-8.663C77.581,119.698,80.272,123.557,80.248,128.329z"/>
				<g>
					<path style="fill:#21150F;" d="M78.792,127.881c-0.032,3.437-2.001,6.218-4.412,6.227c-2.41,0.021-4.351-2.754-4.324-6.177
						c0.025-3.435,1.999-6.224,4.406-6.233C76.876,121.684,78.812,124.452,78.792,127.881z"/>
				</g>
				<g style="opacity:0.4;">
					<path style="opacity:0.6;fill:#5E5F5E;" d="M66.335,126.178c-0.077,0.582-0.123,1.182-0.129,1.803
						c-0.048,6.242,3.485,11.296,7.888,11.277c4.4-0.028,7.995-5.116,8.031-11.36c0.011-0.576-0.03-1.145-0.086-1.702
						C77.24,129.613,70.239,130.434,66.335,126.178z"/>
				</g>
				<path style="fill:#FFFFFF;" d="M73.013,125.204c-0.186,1.944-1.443,3.411-2.812,3.281c-1.367-0.138-2.313-1.807-2.111-3.755
					c0.186-1.94,1.436-3.399,2.812-3.274C72.256,121.586,73.211,123.268,73.013,125.204z"/>
				<path style="fill:#FFFFFF;" d="M71.474,131.258c-0.088,0.918-0.688,1.616-1.346,1.558c-0.641-0.063-1.093-0.858-1.011-1.784
					c0.095-0.924,0.696-1.617,1.345-1.557C71.11,129.54,71.562,130.332,71.474,131.258z"/>
			</g>
		</g>
		<g>
			<defs>
				<path id="SVGID_00000113330005384524342770000001039049418514345393_" d="M131.278,148.763
					c-0.547,0.454-1.066,1.026-1.532,1.669c-2.309,1.537-6.934,1.061-9.23,0.122c-3.686-1.499-5.977-4.962-6.816-8.728
					c-1.653-7.344-0.652-14.807,4.066-20.858c2.658-3.419,7.337-3.717,10.957-1.952c3.462,1.679,5.773,5.447,6.905,8.972
					c0.968,3.005,1.252,6.145,1.133,9.304c-0.079,2.029-0.559,4.318-1.292,6.222c-0.329,0.861-0.948,2.596-1.786,3.621
					C132.85,147.587,132.043,148.115,131.278,148.763z"/>
			</defs>
			<clipPath id="SVGID_00000099632788129463274760000004087233558160882066_">
				<use xlink:href="#SVGID_00000113330005384524342770000001039049418514345393_"  style="overflow:visible;"/>
			</clipPath>
			<g style="clip-path:url(#SVGID_00000099632788129463274760000004087233558160882066_);">
				<path style="fill:#554033;" d="M135.709,130.791c-0.309,7.183-4.561,12.956-9.491,12.929c-4.926-0.036-8.669-5.884-8.362-13.064
					c0.319-7.173,4.557-12.968,9.488-12.932C132.273,117.765,136.015,123.611,135.709,130.791z"/>
				<path style="fill:#745947;" d="M133.567,131.255c-0.232,5.478-3.472,9.892-7.232,9.867c-3.761-0.031-6.619-4.494-6.381-9.968
					c0.233-5.479,3.474-9.898,7.241-9.868C130.954,121.312,133.813,125.775,133.567,131.255z"/>
				<g>
					<path style="fill:#21150F;" d="M131.706,130.728c-0.163,3.727-2.375,6.732-4.935,6.706c-2.561-0.007-4.504-3.05-4.342-6.781
						c0.156-3.72,2.373-6.732,4.927-6.713C129.918,123.96,131.869,126.996,131.706,130.728z"/>
				</g>
				<g style="opacity:0.4;">
					<path style="opacity:0.6;fill:#5E5F5E;" d="M118.07,128.584c-0.101,0.683-0.19,1.361-0.215,2.071
						c-0.307,7.181,3.437,13.028,8.362,13.064c4.93,0.027,9.183-5.746,9.491-12.929c0.019-0.671,0-1.321-0.033-1.957
						C130.146,132.691,122.274,133.542,118.07,128.584z"/>
				</g>
				<path style="fill:#FFFFFF;" d="M125.615,127.575c-0.302,2.226-1.777,3.892-3.307,3.723c-1.521-0.165-2.507-2.107-2.211-4.341
					c0.29-2.224,1.776-3.891,3.287-3.727C124.917,123.412,125.906,125.351,125.615,127.575z"/>
				<path style="fill:#FFFFFF;" d="M123.624,134.5c-0.137,1.063-0.838,1.848-1.572,1.77c-0.715-0.079-1.2-1.002-1.057-2.058
					c0.143-1.062,0.846-1.854,1.569-1.773C123.289,132.517,123.765,133.439,123.624,134.5z"/>
			</g>
		</g>
	</g>
	<g>
		<path style="fill:#D3519D;stroke:#862D64;stroke-linecap:round;stroke-linejoin:round;stroke-miterlimit:10;" d="M167.347,16.499
			c-40.358-15.454-76.415-6.34-82.977-2.484c-3.902,2.291-6.045,3.99-7.147,4.993c0.063,0.147,0.132,0.295,0.2,0.442
			c5.283-2.445,28.022-11.059,71.56-2.575c50.218,9.787,38.429,89.566,38.429,89.566l15.038,2.143
			C208.431,80.879,207.705,31.951,167.347,16.499z"/>
		<path style="fill:#F17BB0;" d="M202.976,74.51c-2.037,1.644-5.097,2.158-7.57,1.242c-6.376-2.362-6.499-11.545-8.17-16.979
			c-1.49-4.847-3.497-9.504-5.839-13.997c11.204,26.503,6.014,61.666,6.014,61.666l15.038,2.143
			c2.184-10.111,3.47-23.05,2.266-36.156C204.258,73.215,203.692,73.932,202.976,74.51z"/>
		<path style="fill:#F17BB0;" d="M191.746,93.729c-1.099,0.013-2.193,0.078-3.283,0.167c-0.321,7.592-1.053,12.545-1.053,12.545
			l15.038,2.143c0.778-3.597,1.438-7.556,1.915-11.751C200.582,94.697,196.284,93.681,191.746,93.729z"/>
		<path style="fill:#D3519D;stroke:#862D64;stroke-linecap:round;stroke-linejoin:round;stroke-miterlimit:10;" d="M186.508,51.525
			c-1.307-3.669-3.559-8.554-5.032-12.167c-3.368-8.263-12.114-15.625-15.437-17.811c-8.331-5.48-18.113-7.647-27.88-8.89
			c-10.829-1.379-21.899-2.158-32.795-1.161c-5.517,0.505-10.62,1.092-15.942,2.601c-2.617,0.744-5.569,1.601-8.134,2.541
			c-0.719,0.266-1.432,0.544-2.149,0.805c-0.843,0.633-1.466,1.156-1.916,1.567c0.063,0.148,0.131,0.293,0.199,0.44
			c5.283-2.445,28.022-11.059,71.56-2.575c50.218,9.787,38.429,89.566,38.429,89.566l2.763,0.049
			c0.731-3.854,1.065-21.399,0.766-26.389C190.642,75.153,188.836,58.07,186.508,51.525z"/>
		<path style="fill:#D3519D;stroke:#862D64;stroke-linecap:round;stroke-linejoin:round;stroke-miterlimit:10;" d="M107.428,6.963
			c0,0-3.583,0.439-4.028,6.358c0,0-0.291,0.504,1.456,0.407c1.748-0.097,24.111-0.378,35.295,1.884c0,0,0.979,0.349,1.806-0.571
			c0.825-0.922,0.963-4.575,3.605-5.018c0,0,1.991,0.929,2.28,0.425c0.291-0.504,0.625-1.602-1.179-1.967
			S116.239,4.24,107.428,6.963z"/>
		<path style="fill:#D3519D;" d="M146.663,8.481c-0.142-0.028-0.465-0.081-0.913-0.148c-0.777,0.071-1.566,0.304-2.383,0.763
			c-1.665,0.936-2.801,2.608-4.489,3.469c-1.723,0.876-3.54,0.586-5.392,0.358c-2.658-0.325-18.802-1.152-24.134-1.856
			c-1.685-0.223-3.077-0.646-4.14-2.034c-0.105-0.137-0.187-0.282-0.255-0.434c-0.731,0.942-1.385,2.409-1.559,4.722
			c0,0-0.291,0.504,1.456,0.407c1.748-0.097,24.111-0.378,35.295,1.884c0,0,0.979,0.349,1.806-0.571
			c0.825-0.922,0.963-4.575,3.605-5.018c0,0,1.991,0.929,2.28,0.425C148.133,9.944,148.467,8.847,146.663,8.481z"/>
		<path style="fill:#D3519D;" d="M170.025,19.687c0,0,24.168,9.173,30.379,39.722c6.21,30.547,1.155,43.832,1.155,43.832
			s0.729-34.213-6.594-52.312C187.644,32.828,176.299,22.083,170.025,19.687z"/>
		<g>
			<path style="fill:#D3519D;stroke:#862D64;stroke-miterlimit:10;" d="M206.873,133.518c-0.118,13.369-0.606,24.093-8.714,27.073
				c-1.425,0.522-8.516,1.235-10.044,1.22c-10.221-0.09-18.393-12.902-18.254-28.619c0.14-15.718,8.536-28.385,18.757-28.293
				c1.536,0.012,9.398,0.569,10.82,1.124C207.48,109.161,206.991,120.163,206.873,133.518z"/>
			<path style="fill:#F17BB0;" d="M197.07,110.139c2.643,0.422,5.322,0.936,7.964,1.606c-1.111-2.674-2.858-4.655-5.596-5.723
				c-1.423-0.555-9.284-1.112-10.82-1.124c-3.952-0.036-7.63,1.844-10.665,5.063C184.225,108.769,190.865,109.148,197.07,110.139z"
				/>
			<path style="fill:#D3519D;" d="M198.271,132.342c-5.645-0.577-11.283-1.119-16.955-1.349c-3.754-0.151-7.585,0.018-11.361-0.196
				c-0.05,0.792-0.087,1.588-0.094,2.395c-0.007,0.745,0.014,1.48,0.044,2.211c1.17,0.128,2.354,0.174,3.508,0.217
				c3.123,0.123,6.239,0.325,9.364,0.408c6.476,0.167,12.954,0.205,19.426,0.505c1.546,0.072,3.088,0.133,4.628,0.184
				c0.018-1.05,0.032-2.112,0.042-3.199c0.001-0.11,0.002-0.219,0.004-0.331C204.009,132.904,201.139,132.633,198.271,132.342z"/>
			<path style="fill:#F17BB0;" d="M198.37,152.355c-6.229,0.434-12.6,0.98-18.846,0.52c-1.733-0.13-3.455-0.354-5.137-0.71
				c3.337,5.871,8.235,9.598,13.728,9.645c1.528,0.016,8.619-0.697,10.044-1.22c3.83-1.409,5.959-4.549,7.152-8.875
				C203.007,151.974,200.694,152.192,198.37,152.355z"/>
			<path style="fill:#F17BAD;" d="M215.471,133.403c-0.132,15.007-8.15,27.103-17.91,27.015c-9.76-0.086-17.563-12.32-17.431-27.329
				c0.134-15.007,8.15-27.103,17.911-27.015C207.8,106.16,215.604,118.396,215.471,133.403z"/>
			<path style="fill:#AB218E;stroke:#862D64;stroke-miterlimit:10;" d="M215.471,133.403c-0.127,14.355-7.798,25.928-17.135,25.845
				c-9.335-0.082-16.801-11.787-16.674-26.144c0.127-14.357,7.799-25.928,17.134-25.845
				C208.132,107.341,215.598,119.047,215.471,133.403z"/>
			<g>
				<path style="fill:#4D1163;stroke:#862D64;stroke-miterlimit:10;" d="M212.482,133.486c-0.104,11.906-6.405,21.503-14.072,21.434
					c-7.666-0.066-13.797-9.773-13.69-21.678c0.104-11.906,6.405-21.502,14.071-21.436
					C206.458,111.876,212.587,121.582,212.482,133.486z"/>
				<path style="fill:#D3519D;stroke:#862D64;stroke-miterlimit:10;" d="M214.907,133.398c-0.105,11.79-6.403,21.294-14.07,21.225
					c-7.667-0.066-13.798-9.679-13.693-21.469c0.104-11.79,6.403-21.292,14.07-21.225
					C208.881,111.998,215.011,121.609,214.907,133.398z"/>
			</g>
		</g>
	</g>
	<g>
		<g>
			<path style="fill:#CD7E5B;" d="M223.13,133.711c-0.011-0.096,0.017-0.168,0.058-0.225c-0.146-1.768-0.387-3.529-0.616-5.277
				c-0.45-3.422-0.715-6.748-2.792-9.611c-1.891-2.604-4.775-4.088-7.653-5.352c-2.968-1.303-6.09-2.691-9.382-2.686
				c-0.042,0-0.09,0.016-0.137,0.039c-2.03-1.285-4.854-2.396-7.093-1.205c-0.055,0.029-0.106,0.084-0.153,0.146
				c-1.328-0.932-2.724-1.752-4.235-2.354c-1.734-0.689-3.771,0.654-3.923,2.336c-0.415-0.09-0.846-0.105-1.292-0.012
				c-1.213,0.252-1.779,1.6-1.989,2.674c-0.418,2.129,0.998,4.451,2.145,6.1c1.649,2.373,3.782,4.359,5.179,6.912
				c1.655,3.027,1.343,7.225,1.348,10.553c0,0.102,0.04,0.148,0.097,0.162c-0.081,1.143-0.244,2.258-0.724,3.098
				c-1.145,1.998-2.691,3.762-3.908,5.721c-1.113,1.791-2.064,3.727-2.92,5.652c-0.859,1.93-1.101,4.016-1.551,6.059
				c-0.832,3.77-1.005,7.828,0.288,11.516c0.729,2.082,2.399,5.019,4.625,6.205c2.229,0.342,4.495-0.467,6.823-0.984
				c0.942-0.211,1.93-0.34,2.874-0.049c0.316,0.098,0.615,0.189,0.907,0.277c0.818-0.008,1.607-0.088,2.378-0.242
				c0.878-0.301,1.715-0.756,2.478-1.299c2.607-2.154,4.762-5.078,6.733-7.582c1.699-2.16,3.11-4.535,4.55-6.871
				c1.536-2.494,3.147-4.969,4.52-7.559c1.088-2.051,2.285-4.211,3.018-6.42c0.634-1.918,0.717-4.17,0.71-6.293
				C223.394,135.992,223.262,134.848,223.13,133.711z"/>
			<path style="fill:#FFE3CB;" d="M222.107,142.396c-0.243,2.133-1.571,4.17-2.484,6.086c-2.034,4.266-4.776,8.211-7.242,12.234
				c-1.253,2.045-2.774,3.908-4.347,5.713c-1.751,2.014-3.435,4.193-5.595,5.789c-2.008,1.482-4.908,2.064-7.34,2.148
				c-1.342,0.045-2.648-0.207-3.968-0.389c-0.247-0.035-1.343-0.266-2.235-0.549c-2.469-1.658-4.169-5.281-4.71-7.822
				c-0.879-4.125-0.054-8.088,0.761-12.137c0.863-4.293,3.49-8.531,6.107-11.98c0.713-0.938,1.79-2.15,1.975-3.348
				c0.296-1.918,0.412-3.867,0.493-5.803c0.007-0.135-0.038-0.193-0.103-0.207c-0.021-3.479-0.644-6.889-2.76-9.783
				c-1.316-1.799-2.864-3.416-4.137-5.248c-0.941-1.355-3.639-7.404,0.297-6.672c0.184,0.035,0.368,0.092,0.553,0.16
				c0.037,0.096,0.366,0.355,0.519,0.271c0.01-0.006,0.019-0.014,0.026-0.023c1.492,0.809,2.887,2.496,3.997,3.477
				c2.113,1.867,4.024,3.701,5.575,6.08c2.857,4.385,4.291,9.191,5.037,14.31c0.086-0.674,0.205-1.346,0.35-2.01
				c-0.547-5.275-2.564-10.188-5.715-14.529c-1.675-2.309-3.97-4.043-6.045-5.967c-0.885-0.818-1.915-1.863-3.085-2.399
				c-0.129-3.26,3.981-1.049,5.158-0.391c1.259,0.703,2.343,1.619,3.427,2.559c2.442,2.119,4.891,4.209,7.288,6.383
				c2.386,2.162,4.399,4.342,5.319,7.535c0.802,2.781,1.052,5.828,1.422,8.748c0.125-0.576,0.297-1.145,0.469-1.713
				c-0.238-3.43-0.563-7.012-2.068-9.988c-1.879-3.713-5.249-6.209-8.303-8.941c-1.501-1.342-3.029-2.713-4.658-3.93
				c2.809-0.713,5.717,1.309,7.831,2.914c2.574,1.955,4.882,4.252,7.339,6.35c4.926,4.201,5.124,11.9,6.375,17.848
				c0.121-0.85,0.244-1.703,0.297-2.559c-0.319-2.953-0.962-5.902-1.685-8.754c-0.765-3.018-2.3-5.789-4.676-7.818
				c-2.421-2.068-4.703-4.311-7.242-6.23c0.771,0.133,1.538,0.281,2.312,0.531c1.46,0.473,2.887,1.086,4.304,1.676
				c3.264,1.359,6.232,2.959,8.352,5.861c1.95,2.668,2.093,6.371,2.526,9.549c0.373,2.732,0.633,5.443,0.83,8.182
				C222.47,139.207,222.289,140.801,222.107,142.396z"/>
			<path style="fill:#FFE3CB;" d="M222.107,142.396c-0.243,2.133-1.571,4.17-2.484,6.086c-2.034,4.266-4.776,8.211-7.242,12.234
				c-1.253,2.045-2.774,3.908-4.347,5.713c-1.751,2.014-3.435,4.193-5.595,5.789c-2.008,1.482-4.908,2.064-7.34,2.148
				c-1.342,0.045-2.648-0.207-3.968-0.389c-0.247-0.035-1.343-0.266-2.235-0.549c-2.469-1.658-4.169-5.281-4.71-7.822
				c-0.879-4.125-0.054-8.088,0.761-12.137c0.863-4.293,3.49-8.531,6.107-11.98c0.713-0.938,1.79-2.15,1.975-3.348
				c0.296-1.918,0.412-3.867,0.493-5.803c0.007-0.135-0.038-0.193-0.103-0.207c-0.021-3.479-0.644-6.889-2.76-9.783
				c-1.316-1.799-2.864-3.416-4.137-5.248c-0.941-1.355-3.639-7.404,0.297-6.672c0.184,0.035,0.368,0.092,0.553,0.16
				c0.037,0.096,0.366,0.355,0.519,0.271c0.01-0.006,0.019-0.014,0.026-0.023c1.492,0.809,2.887,2.496,3.997,3.477
				c2.113,1.867,4.024,3.701,5.575,6.08c2.857,4.385,4.291,9.191,5.037,14.31c0.086-0.674,0.205-1.346,0.35-2.01
				c-0.547-5.275-2.564-10.188-5.715-14.529c-1.675-2.309-3.97-4.043-6.045-5.967c-0.885-0.818-1.915-1.863-3.085-2.399
				c-0.129-3.26,3.981-1.049,5.158-0.391c1.259,0.703,2.343,1.619,3.427,2.559c2.442,2.119,4.891,4.209,7.288,6.383
				c2.386,2.162,4.399,4.342,5.319,7.535c0.802,2.781,1.052,5.828,1.422,8.748c0.125-0.576,0.297-1.145,0.469-1.713
				c-0.238-3.43-0.563-7.012-2.068-9.988c-1.879-3.713-5.249-6.209-8.303-8.941c-1.501-1.342-3.029-2.713-4.658-3.93
				c2.809-0.713,5.717,1.309,7.831,2.914c2.574,1.955,4.882,4.252,7.339,6.35c4.926,4.201,5.124,11.9,6.375,17.848
				c0.121-0.85,0.244-1.703,0.297-2.559c-0.319-2.953-0.962-5.902-1.685-8.754c-0.765-3.018-2.3-5.789-4.676-7.818
				c-2.421-2.068-4.703-4.311-7.242-6.23c0.771,0.133,1.538,0.281,2.312,0.531c1.46,0.473,2.887,1.086,4.304,1.676
				c3.264,1.359,6.232,2.959,8.352,5.861c1.95,2.668,2.093,6.371,2.526,9.549c0.373,2.732,0.633,5.443,0.83,8.182
				C222.47,139.207,222.289,140.801,222.107,142.396z"/>
			<path style="fill:#F1D6C2;" d="M212.109,157.883c-4.821,3.201-10.29,5.611-16.105,6.129c-4.281,0.381-9.43-0.256-11.029-4.949
				c-0.322-0.943-0.496-1.893-0.563-2.842c-0.564,3.107-0.904,6.199-0.225,9.387c0.541,2.541,2.241,6.164,4.71,7.822
				c0.893,0.283,1.988,0.514,2.235,0.549c1.319,0.182,2.626,0.434,3.968,0.389c2.432-0.084,5.332-0.666,7.34-2.148
				c2.16-1.596,3.844-3.775,5.595-5.789c1.572-1.805,3.094-3.668,4.347-5.713c1.219-1.988,2.505-3.959,3.739-5.957
				C214.87,155.877,213.547,156.928,212.109,157.883z"/>
			<path style="fill:#F1D6C2;" d="M188.2,112.416c2.863,2.037,5.469,4.785,7.646,7.527c2.079,2.621,3.574,5.619,4.869,8.688
				c0.468,1.107,0.852,2.189,1.135,3.357c0.11,0.453,0.199,0.994,0.366,1.486c0.007-0.211,0.005-0.422,0.005-0.633
				c-0.813-4.426-2.223-8.598-4.73-12.447c-1.551-2.379-3.462-4.213-5.575-6.08c-1.11-0.98-2.505-2.668-3.997-3.477
				c-0.008,0.01-0.017,0.018-0.026,0.023c-0.152,0.084-0.481-0.176-0.519-0.271c-0.185-0.068-0.368-0.125-0.553-0.16
				c-1.087-0.201-1.656,0.123-1.907,0.713C185.992,111.15,187.079,111.617,188.2,112.416z"/>
			<path style="fill:#F1D6C2;" d="M199.111,114.857c3.189,2.729,5.936,5.895,7.758,9.703c0.773,1.615,1.593,3.303,1.939,5.07
				c0.339,1.729,0.484,3.531,1.128,5.18c0.225-0.402,0.409-0.824,0.578-1.254c-0.308-2.586-0.587-5.23-1.29-7.67
				c-0.92-3.193-2.933-5.373-5.319-7.535c-2.397-2.174-4.846-4.264-7.288-6.383c-1.084-0.94-2.168-1.856-3.427-2.559
				c-0.689-0.387-2.38-1.297-3.64-1.336c0.982,0.199,1.952,0.695,2.814,1.277C194.75,110.959,196.926,112.988,199.111,114.857z"/>
			<path style="fill:#F1D6C2;" d="M210.848,120.344c2.676,3.096,4.441,6.848,5.714,10.748c-0.795-4.439-1.958-8.91-5.306-11.766
				c-2.457-2.098-4.765-4.395-7.339-6.35c-1.703-1.293-3.922-2.855-6.19-3.041c1.859,1.641,4.135,2.684,6.074,4.264
				C206.171,116.129,208.843,118.023,210.848,120.344z"/>
			<path style="fill:#F1D6C2;" d="M221.818,129.43c-0.434-3.178-0.576-6.881-2.526-9.549c-2.119-2.902-5.088-4.502-8.352-5.861
				c-0.483-0.201-0.967-0.402-1.451-0.602c0.364,0.227,0.734,0.449,1.106,0.678c1.36,0.838,2.498,1.824,3.692,2.881
				c2.358,2.086,4.35,4.283,4.864,7.498c0.573,3.588,0.926,7.42,0.847,11.053c-0.083,3.775-1.23,7.234-2.712,10.682
				c-3.074,7.152-7.751,12.941-12.229,19.229c-1.906,2.676-4.108,5.434-7.008,7.088c-1.76,1.006-3.59,1.469-5.5,1.656
				c0.844,0.119,1.689,0.215,2.55,0.186c2.432-0.084,5.332-0.666,7.34-2.148c2.16-1.596,3.844-3.775,5.595-5.789
				c1.572-1.805,3.094-3.668,4.347-5.713c2.466-4.023,5.208-7.969,7.242-12.234c0.913-1.916,2.241-3.953,2.484-6.086
				c0.182-1.596,0.362-3.189,0.541-4.785C222.451,134.873,222.191,132.162,221.818,129.43z"/>
		</g>
		<g>
			<path style="fill:#101656;" d="M217.175,212.023c-0.294-7.111-1.293-14.223-2.424-21.244c-0.563-3.498-1.266-6.965-1.956-10.438
				c-0.338-1.695-0.717-3.404-0.914-5.123c-0.107-0.949-0.119-1.848,0.127-2.781c0.006-0.021,0.011-0.035,0.016-0.055
				c1.196-1.184,2.811-3.066,1.446-4.617c-1.183-1.344-3.695-1.426-5.314-1.557c-1.885-0.152-3.783,0.051-5.643,0.348
				c-6.164,0.984-13.153,3.609-17.569,8.346c-0.41,0.357-0.767,0.691-0.875,0.814c-0.733,0.838-1.379,1.814-1.625,2.906
				c-0.458,2.039,0.644,3.262,2.327,3.625c0.477,0.557,0.576,1.818,0.705,2.35c0.475,1.953,0.882,3.91,1.399,5.855
				c0.472,1.775,0.624,3.609,1.023,5.396c0.461,2.061,0.866,4.049,1.112,6.148c0.003,0.025,0.007,0.051,0.01,0.078
				c-0.043,0.055-0.072,0.119-0.067,0.17c0.043,0.4,0.076,0.803,0.106,1.205c-1.711-0.848-3.523-1.488-5.291-2.205
				c-1.296-0.525-2.599-1.02-3.912-1.484c-0.605-0.129-1.209-0.264-1.805-0.443c-1.919-0.576-3.84-1.088-5.799-1.512
				c-3.638-0.789-7.237-1.793-10.893-2.49c-3.982-0.758-7.975-1.162-12.016-1.422c-1.916-0.123-3.83-0.293-5.752-0.283
				c-1.392,0.008-2.754,0.203-4.13,0.309c-0.023,0.008-0.049,0.014-0.072,0.021c-0.029,0.055-0.05,0.115-0.078,0.172
				c-0.017,0.076-0.028,0.154-0.042,0.23c0.418,0.543,0.723,1.168,0.988,1.84c0.802,2.025,1.823,3.957,2.673,5.963
				c1.495,3.529,2.408,7.27,3.228,11.004c0.846,3.852,1.755,7.73,2.344,11.631c0.286,1.891,0.53,3.803,0.507,5.719
				c-0.009,0.707,0.026,1.539-0.061,2.326c0.732,0.217,1.468,0.395,2.14,0.572c2.66,0.703,5.369,1.217,8.084,1.652
				c5.489,0.879,11.012,1.754,16.573,1.986c1.196,0.051,2.392,0.117,3.589,0.186c1.279,0.01,7.543,0.443,10.533,0.229
				c2.488-0.18,5.18-0.318,7.696-0.51c0.844-0.145,2-0.227,2.52-0.375c2.283-0.652,4.755-0.961,6.882-2.049
				c0.029-0.016,0.059-0.041,0.086-0.072c3.181-1.309,5.975-3.242,7.973-6.227c1.316-2.371,2.204-4.99,2.539-7.604
				C217.684,217.77,217.292,214.846,217.175,212.023z"/>
			<path style="fill:#293791;" d="M216.523,216.563c-0.172-3.121-0.232-6.244-0.535-9.357c-0.627-6.435-1.469-12.865-2.607-19.232
				c-0.584-3.262-1.333-6.498-1.879-9.768c-0.204-1.219-0.488-2.486-0.4-3.73c0.047-0.648,0.287-1.223,0.456-1.813
				c-0.15-0.053-0.184-0.328-0.031-0.547c0.683-0.986,2.687-2.885,0.808-3.881c-1.589-0.838-3.425-1.107-5.212-1.135
				c-2.859-0.043-5.663,0.424-8.425,1.141c-5.476,1.424-10.919,4.188-14.742,8.445c-0.008,0.012-0.017,0.018-0.025,0.025
				c-0.43,0.639-0.726,1.336-0.765,2.094c-0.067,1.273,0.439,1.889,1.206,2.248c0.025,0.016,0.046,0.035,0.071,0.051
				c0.494,0.314,1.235,0.713,1.984,0.934c-0.106,0.17-0.277,0.324-0.405,0.326c-0.141,0.002-0.28,0-0.417-0.006
				c0.649,1.465,0.839,3.068,1.262,4.605c0.544,1.973,1.109,3.924,1.417,5.953c0.31,2.043,0.957,4.016,1.256,6.057
				c1.034,7.09,1.232,14.537,3.083,21.502c0.52,2.957,1.58,5.785,3.061,8.453c-1.311-1.523-2.469-3.471-3.285-5.227
				c-0.971-2.092-1.681-4.279-2.25-6.512c-0.161-0.631-0.291-1.266-0.396-1.9c-0.095,0.77-0.179,1.543-0.21,2.322
				c-0.13,3.234,0.438,5.852,1.219,8.953c0.008,0.031,0.003,0.066-0.008,0.105c-1.033-1.836-1.614-3.922-1.975-6.053
				c-0.046-2.486,0.364-4.996,0.693-7.531c-0.247-2.682-0.201-5.389-0.32-8.094c-0.001,0-0.004,0-0.005-0.002
				c-2.256-1.254-4.762-1.953-7.198-2.766c-2.436-0.813-4.847-1.711-7.299-2.471c-4.975-1.543-10.059-2.695-15.182-3.633
				c-2.594-0.476-5.2-0.898-7.819-1.205c-1.854-0.219-3.893-0.602-5.861-0.691c-0.293-0.053-0.586-0.096-0.875-0.115
				c-1.413-0.1-3.428-0.281-4.632,0.615c-0.189,0.141-0.324,0.332-0.428,0.551c0.149,0.291,0.282,0.594,0.407,0.908
				c0.802,2.025,1.823,3.957,2.673,5.963c1.495,3.529,2.408,7.27,3.228,11.004c0.846,3.852,1.755,7.73,2.344,11.631
				c0.286,1.891,0.53,3.803,0.507,5.719c-0.006,0.461,0.007,0.979-0.007,1.5c1.314,0.363,2.681,0.604,3.878,0.857
				c2.467,0.521,4.932,1.002,7.425,1.381c5.476,0.832,10.919,1.553,16.449,1.881c4.274,0.256,8.596,0.602,12.894,0.637
				c1.083-0.105,2.288-0.094,3.376-0.193c3.521-0.318,5.933-0.422,9.051-1.076c0.854-0.213,2.02-0.746,2.872-0.971
				c1.131-0.352,2.237-0.779,3.304-1.326c0.731-0.375,1.466-0.785,2.175-1.234c0.039-0.045,0.08-0.086,0.119-0.129
				c0.809-0.584,1.521-1.297,2.179-2.152c0.167-0.215,0.331-0.43,0.494-0.645c1.017-1.107,1.923-2.301,2.454-3.824
				c0.698-2.004,0.86-4.041,0.988-6.104C216.624,218.256,216.569,217.41,216.523,216.563z"/>
			<path style="fill:#293791;" d="M184.371,181.053c0.025,0.016,0.046,0.035,0.071,0.051c0.494,0.314,1.235,0.713,1.984,0.934
				c-0.106,0.17-0.277,0.324-0.405,0.326c-0.141,0.002-0.28,0-0.417-0.006c0.649,1.465,0.839,3.068,1.262,4.605
				c0.544,1.973,1.109,3.924,1.417,5.953c0.31,2.043,0.957,4.016,1.256,6.057c0.79,5.418,1.098,11.041,2.021,16.5
				c-0.034-0.852-0.058-1.703-0.07-2.555c-0.094-6.322-0.597-12.736-1.755-18.957c-0.477-2.559-1.374-5.025-1.804-7.586
				c-0.273-1.631-0.549-3.771,0.498-5.219c1.532-2.121,3.606-3.803,5.844-5.26c-1.379,0.664-2.719,1.391-3.961,2.266
				c-1.553,1.096-3.781,2.932-5.836,2.35c-1.092-0.309-1.318-1.369-1.199-2.385c-0.057,0.221-0.101,0.445-0.112,0.678
				C183.098,180.078,183.605,180.693,184.371,181.053z"/>
			<path style="fill:#293791;" d="M150.523,195.967c4.625,0.578,9.168,1.219,13.678,2.422c4.576,1.221,9.173,2.387,13.695,3.797
				c3.833,1.193,7.816,2.402,11.309,4.426c-0.015-0.539-0.029-1.078-0.053-1.619c-0.001,0-0.004,0-0.005-0.002
				c-2.256-1.254-4.762-1.953-7.198-2.766c-2.436-0.813-4.847-1.711-7.299-2.471c-4.975-1.543-10.059-2.695-15.182-3.633
				c-2.594-0.476-5.2-0.898-7.819-1.205c-1.854-0.219-3.893-0.602-5.861-0.691c-0.293-0.053-0.586-0.096-0.875-0.115
				c-1.413-0.1-3.428-0.281-4.632,0.615c-0.096,0.072-0.179,0.158-0.25,0.252C143.513,194.395,147.037,195.529,150.523,195.967z"/>
			<path style="opacity:0.4;fill:#293791;" d="M216.523,216.563c-0.172-3.121-0.232-6.244-0.535-9.357
				c-0.627-6.435-1.469-12.865-2.607-19.232c-0.584-3.262-1.333-6.498-1.879-9.768c-0.204-1.219-0.488-2.486-0.4-3.73
				c0.047-0.648,0.287-1.223,0.456-1.813c-0.15-0.053-0.184-0.328-0.031-0.547c0.683-0.986,2.687-2.885,0.808-3.881
				c-1.589-0.838-3.425-1.107-5.212-1.135c-2.859-0.043-5.663,0.424-8.425,1.141c-5.193,1.35-10.34,3.924-14.121,7.816
				c1.284-0.992,2.57-1.973,4.072-2.713c2.178-1.072,4.475-2.164,6.797-2.889c1.436-0.449,2.897-0.85,4.377-1.123
				c1.249-0.231,2.843-0.617,4.09-0.197c2.826,0.953-0.798,3.254-1.884,3.834c-1.2,0.645-2.497,1.156-3.647,1.887
				c-2.101,1.336-4.017,2.902-5.829,4.594c2.022-0.91,3.895-2.428,6.121-2.555c2.773-0.156,3.724,2.625,4.541,4.828
				c2.789,7.51,3.184,16.008,3.539,23.943c0.207,4.639,0.09,9.355-0.985,13.894c-0.594,2.508-1.051,6.639-4.533,6.576
				c-3.561-0.064-6.569-2.705-8.681-5.951c0.025,0.094,0.043,0.193,0.068,0.289c0.52,2.957,1.58,5.785,3.061,8.453
				c-1.311-1.523-2.469-3.471-3.285-5.227c-0.971-2.092-1.681-4.279-2.25-6.512c-0.161-0.631-0.291-1.266-0.396-1.9
				c-0.095,0.77-0.179,1.543-0.21,2.322c-0.13,3.234,0.438,5.852,1.219,8.953c0.008,0.031,0.003,0.066-0.008,0.105
				c-1.033-1.836-1.614-3.922-1.975-6.053c-0.021-1.158,0.059-2.322,0.181-3.492c-0.809,2.676-0.411,5.629-0.168,8.371
				c0.196,2.229,0.099,4.086-2.455,4.399c-2.938,0.363-6.004-0.162-8.942-0.375c-4.292-0.309-8.613-0.732-12.815-1.699
				c-3.487-0.801-7.61-1.721-10.277-4.291c-2.37-2.285-3.768-5.277-4.887-8.328c-2.196-5.992-4.094-12.615-8.452-17.371
				c0.647,1.443,1.354,2.861,1.971,4.316c1.495,3.529,2.408,7.27,3.228,11.004c0.846,3.852,1.755,7.73,2.344,11.631
				c0.286,1.891,0.53,3.803,0.507,5.719c-0.006,0.461,0.007,0.979-0.007,1.5c1.314,0.363,2.681,0.604,3.878,0.857
				c2.467,0.521,4.932,1.002,7.425,1.381c5.476,0.832,10.919,1.553,16.449,1.881c4.274,0.256,8.596,0.602,12.894,0.637
				c1.083-0.105,2.288-0.094,3.376-0.193c3.521-0.318,5.933-0.422,9.051-1.076c0.854-0.213,2.02-0.746,2.872-0.971
				c1.131-0.352,2.237-0.779,3.304-1.326c0.731-0.375,1.466-0.785,2.175-1.234c0.039-0.045,0.08-0.086,0.119-0.129
				c0.809-0.584,1.521-1.297,2.179-2.152c0.167-0.215,0.331-0.43,0.494-0.645c1.017-1.107,1.923-2.301,2.454-3.824
				c0.698-2.004,0.86-4.041,0.988-6.104C216.624,218.256,216.569,217.41,216.523,216.563z"/>
		</g>
	</g>
</g>
</svg>
