<?xml version="1.0" encoding="utf-8"?>
<!-- Generator: Adobe Illustrator 27.5.0, SVG Export Plug-In . SVG Version: 6.00 Build 0)  -->
<svg version="1.1" id="Layer_1" xmlns="http://www.w3.org/2000/svg" xmlns:xlink="http://www.w3.org/1999/xlink" x="0px" y="0px"
	 viewBox="0 0 2213.554 2000" style="enable-background:new 0 0 2213.554 2000;" xml:space="preserve">
<g>
	<g>
		<rect x="0" y="0" style="fill:#FFFFFF;" width="2213.554" height="2000"/>
		<path style="fill:#EBF3FA;" d="M375.387,1862.7c0,0-271.014-549.5-125.965-978.631
			C687.93-413.268,2039.49,257.989,1913.163,966.679c-69.473,389.745,188.604,506.519,54.294,896.847L375.387,1862.7z"/>
	</g>
	<g>
		<path style="fill:#FFB27D;" d="M1048.458,1069.053l19.703,6.4c0,0,31.3-10.367,58.67,26.336c0,0,8.567,13.665-1.98,24.072
			c-9.714,9.583-11.608-12.996-30.309-8.494c-18.701,4.5-31.367-2.531-39.714-13.947l-13.77-8.23L1048.458,1069.053z"/>
		<g>
			<path style="fill:#2C3A64;" d="M1452.837,447.853c0.126-3.454,2.799-40.671,59.488-42.616c0,0-27.876,3.324-32.693,15.579
				c0,0,18.981-15.143,34.439-10.272c15.457,4.871,24.536,31.952,24.628,40.859c0.091,8.908-8.497,37.622-18.308,40.063
				c-3.715,0.925-7.995,0.677-11.881,0.014c2.609,4.076,5.168,8.572,7.613,13.592c22.621,46.434-0.708,91.813-19.857,86.799
				c-12.281-3.215-15.756,17.741-15.756,17.741l-119.32-96.598C1361.188,513.016,1405.015,422.331,1452.837,447.853z"/>
			<path style="fill:#FFB27D;" d="M1160.058,979.91c0,0-23.644-4.611-29.051,0c-5.406,4.611-31.048,30.665-25.558,39.216
				c5.49,8.551,31.814-7.081,37.288-8.555c5.473-1.475,20.775-7.451,20.775-7.451L1160.058,979.91z"/>
			<path style="fill:#2B478B;" d="M1411.293,1815.802l25.344,9.438c0,0,110.084-152.68,123.638-287.012
				c2.421-23.983,1.613-47.22-3.621-68.677c0,0,1.076-6.144,2.958-17.008c0.87-5.071,1.946-11.174,3.166-18.169
				c3.58-20.505,8.505-48.564,14.133-80.512c12.953-73.519,29.734-167.501,42.769-236.591l-6.828-2.193l-73.891-23.837
				l-15.271-48.502l-55.02-14.485c0,0-12.291,24.045-23.278,137.623c-2.028,14.898-3.869,31.328-5.255,49.143
				c-4.284,54.379-4.594,121.835,5.235,198.953c2.525,19.741,5.712,40.123,9.664,61.062c2.897,15.353,3.331,36.273,2.11,60.298
				C1451.601,1645.144,1411.293,1815.802,1411.293,1815.802z"/>
			<path style="fill:#233862;" d="M1440.138,1215.019l119.475,237.524c0.87-5.071,1.946-11.174,3.166-18.169
				c3.58-20.505,8.505-48.564,14.133-80.512c12.953-73.519,29.734-167.501,42.769-236.591l-6.828-2.193l-73.891-23.837
				l-15.271-48.502l-55.02-14.485c0,0-12.291,24.045-23.278,137.623C1443.365,1180.775,1441.524,1197.204,1440.138,1215.019z"/>
			<path style="fill:#2B478B;" d="M1492.698,1058.735l2.766-23.718c46.338,12.308,170.143-34.391,170.143-34.391
				s44.889,39.459,38.996,134.044c-2.877,46.166-8.132,242.342-13.62,300.393c-1.984,21.04-3.721,36.012-4.431,41.992
				c-0.015,0.03-0.015,0.045-0.015,0.058c-0.217,1.824,0.42,3.547,1.348,5.141c8.079,13.713,14.77,27.991,20.258,42.601
				c53.867,143.543-8.297,320.319-8.297,320.319l-16.131-6.502c0,0-35.375-196.729-64.119-283.641
				c-4.88-14.741-9.557-26.326-13.844-33.248c-12.495-20.17-24.094-53.128-34.622-92.326
				c-19.895-74.109-35.911-170.517-46.568-244.931C1523.092,1184.597,1492.698,1058.735,1492.698,1058.735z"/>
			<path style="fill:#FFB27D;" d="M1160.058,979.91l3.454,23.21c0,0,1.533,0,4.219-0.192c8.439-0.577,28.962-1.726,52.169-4.222
				c34.909-3.451,76.338-9.59,92.833-19.753c25.126-15.343,66.364-62.336,93.216-109.329c0.768-1.15,1.343-2.299,1.918-3.451
				c14.001-24.935,23.783-49.678,24.55-69.432c0.576-12.084-0.767-22.442-3.26-31.456c-3.261-11.892-8.632-21.29-14.194-28.386
				c-0.768-1.152-1.534-2.302-2.685-3.262c-9.207-10.931-18.221-15.535-18.221-15.535c-4.603-1.92-9.59,0.384-14.768,5.944v0.192
				c-4.22,4.414-8.824,11.124-13.234,19.564c-0.193,0.193-0.385,0.385-0.385,0.577c-0.959,1.726-1.918,3.643-3.069,5.752
				c-0.383,0.384-0.575,0.96-0.767,1.344c-2.11,4.411-4.219,9.014-6.33,13.809c-23.591,51.402-43.794,126.942-64.7,150.149
				c-9.015,9.973-55.175,31.87-87.972,46.447C1179.238,972.24,1160.058,979.91,1160.058,979.91z"/>
			<path style="fill:#ED7D2B;" d="M1201.868,929.768c27.513-12.5,59.102-2.039,71.602,50.5c8.345,35.074,89.5,74,52.963,127.546
				c-34.963,42.05-119.051,14.526-111.963-38.76c7.088-53.286,24.984-97.84,5.472-106.34
				C1195.579,952.101,1201.868,929.768,1201.868,929.768z"/>
			<path style="fill:#FFB93E;" d="M1154.359,1083.822c57.702-8.254,113.031-6.265,116.115,57.237
				c3.084,63.502,18.083,182.953,0.084,206.473c-17.999,23.521-112.361,20.17-112.361,20.17
				C1095.067,1260.059,1154.359,1083.822,1154.359,1083.822z"/>
			<path style="fill:#FFB27D;" d="M1404.175,771.054c14.547,6.745,32.115,11.339,53.365,12.498
				c79.664,4.365,97.748-65.47,101.038-111.82c-11.484-4.159-21.541-3.766-27.334-3.455c-5.648,0.311-11.546,0.89-16.408,1.49
				c-9.747-5.091-27.252-29.818-37.37-71.181l-3.435,1.593l-57.482,27.024c0,0,6.105,18.706,10.616,36.604
				c3.517,14.008,6.041,27.541,3.931,31.328c-4.532,1.842-7.243,3-7.243,3s0,0.021-0.02,0.062
				C1423.253,699.667,1410.755,731.511,1404.175,771.054z"/>
			<path style="fill:#ED985F;" d="M1416.547,627.215c0,0,6.112,18.688,10.615,36.604c33.599-9.375,43.803-44.693,46.873-63.627
				L1416.547,627.215z"/>
			<path style="fill:#FFB27D;" d="M1409.472,647.002c0,0,80.386-18.604,68.03-68.486c-12.356-49.882-10.302-85.877-62.149-76.108
				c-51.846,9.769-57.065,31.264-56.991,48.916C1358.436,568.977,1388.243,650.556,1409.472,647.002z"/>
			<path style="fill:#2C3A64;" d="M1353.842,523.005c8.642-18.079,18.812-17.115,25.174-13.91
				c37.771-34.947,74.82-6.397,74.82-6.397c14.26,34.448,45.165,48.524,45.165,48.524s-12.349,12.645-48.141,12.367
				c-10.933-0.086-21.925-5.105-31.927-12.021c19.293,19.431,41.914,31.26,41.914,31.26c-44.805-8.574-74.849-60.444-77.927-65.954
				c-3.796,5.605-11.056,17.537-11.667,27.612c-0.83,13.693,3.88,40.281-3.96,41.288
				C1367.292,585.774,1340.881,550.119,1353.842,523.005z"/>
			<path style="fill:#F99746;" d="M1355.306,765.201c2.896-8.688,22.252-42.451,22.252-42.451s0.008,0.003,0.012,0.005
				c0.083-0.077,12.301-11.278,46.284-24.62c0,0,0,0.021-0.02,0.062c-0.539,1.986-15.044,54.523-9.746,65.738
				c5.379,11.401,107.204-25.41,112.77-33.811c4.449-6.746,4.574-42.398,4.449-56.282c-0.021-3.456-0.062-5.566-0.062-5.566
				s38.011-5.152,59.386,3.497c0,0-8.442,18.333-11.546,38.549c-0.29,1.925-0.538,3.849-0.724,5.773
				c-0.414,4.077-0.538,8.152-0.31,12.126c0.31,5.255,3.021,9.911,7.345,14.464c3.932,4.18,9.27,8.297,15.312,12.704
				c3.952,2.855,8.194,5.856,12.581,9.104c0,0,0.001,0.002,0.001,0.002c0.371,23.804-1.307,62.95,3.103,104.72
				c1.117,10.594,4.635,20.734,10.18,29.713c2.193,3.58,4.718,6.974,7.532,10.14c22.451,25.182,62.262,75.38,53.509,106.625
				c-0.642,29.465-249.172,68.18-243.855,35.818c0,0-37.349-179.999-57.523-223.452c-0.724-1.593-1.386-3.145-1.986-4.739
				c-6.466-17.15-5.375-34.785-3.19-50.569C1369.674,764.656,1355.306,765.201,1355.306,765.201z"/>
			<path style="fill:#ED7D2B;" d="M1510.677,991.029c49.019-0.518,90.527-51.419,115.896-92.099
				c-5.545-8.981-9.063-19.12-10.18-29.714c-4.41-41.77-2.732-80.916-3.103-104.72c0-0.001-0.001-0.002-0.001-0.002
				c-4.387-3.249-8.629-6.25-12.581-9.105c-6.042-4.407-11.38-8.525-15.312-12.704
				C1545.253,810.534,1444.214,991.733,1510.677,991.029z"/>
			<path style="fill:#FFB27D;" d="M1325.391,1017.696l6.714,24.549c0,0,8.439-1.533,21.866-4.027
				c4.027-0.768,6.328-1.342,6.328-1.342c10.741-2.109,23.592-4.987,37.594-8.056h0.191c23.975-5.756,50.827-12.658,73.46-20.333
				c15.919-5.56,29.729-11.505,39.127-17.452c0.96-0.576,1.726-1.152,2.686-1.92c22.44-16.301,49.101-64.251,69.814-115.655
				c2.878-7.096,5.564-14.193,8.249-21.098c9.59-25.703,17.262-51.02,21.864-72.886c2.878-13.041,4.795-24.935,5.179-34.717
				c0.192-3.451,0.385-6.71,0.192-9.782c-0.384-55.621-28.003-63.294-28.003-63.294c-0.575-0.192-1.151-0.384-1.917-0.573
				c-4.795-0.768-9.782,2.491-14.962,8.822c-6.521,7.862-13.426,20.714-20.523,36.248c-10.932,24.743-22.441,56.775-33.181,88.615
				c-5.946,17.452-11.7,34.907-17.454,51.017c-3.262,9.782-6.522,18.988-9.59,27.429c-5.946,16.11-11.317,29.152-16.112,37.4
				c-3.068,5.371-11.892,12.852-23.592,21.29c-20.331,14.769-50.06,32.607-75.954,47.182c-10.74,6.139-20.906,11.702-29.345,16.305
				C1334.406,1012.901,1325.391,1017.696,1325.391,1017.696z"/>
			<path style="fill:#F99746;" d="M1553.319,716.262c36.925-10.179,65.408,18.651,65.408,18.651
				c-0.463-55.533-28.107-63.134-28.107-63.134C1579.499,667.174,1566.612,686.433,1553.319,716.262z"/>
			<path style="fill:#233862;" d="M1606.061,1858.353h127.651c0,0,3.06-19.455-3.608-34.215c-6.389-14.163-16.396-20.6-14-37.736
				c-8.112,8.351-21.331,17.702-39.786,15.22c-2.261,3.667-14.596,23.285-22.149,28.712
				C1645.827,1836.329,1608.629,1834.192,1606.061,1858.353z"/>
			<path style="fill:#233862;" d="M1331.977,1858.353h127.65c0,0,4.773-20.359-3.608-34.215
				c-7.418-12.259-4.575-19.242,0.919-29.383c-5.782,2.366-13.263,4.52-21.5,4.049c-6.36-0.365-13.086-3.253-18.983-6.678
				c-5.494,6.264-29.019,32.926-36.37,38.208C1371.742,1836.329,1334.545,1834.192,1331.977,1858.353z"/>
		</g>
		<g>
			<path style="fill:#F0995E;" d="M1045.882,1409.975c0,0,51.437,364.841,45.503,409.886l32.463-3.94
				c0,0,40.626-159.262,35.742-203.828c-4.887-44.566,40.25-228.246-1.393-244.39
				C1116.552,1351.555,1045.882,1409.975,1045.882,1409.975z"/>
			<path style="fill:#FFB27D;" d="M1092.665,1410.414c0,0,73.376,365.181,70.227,410.508l32.111-7.42
				c0,0,31.218-164.173,23.598-208.354c-7.62-44.182,26.12-230.291-16.439-243.842
				C1159.603,1347.754,1092.665,1410.414,1092.665,1410.414z"/>
			<path style="fill:#2C3A64;" d="M1091.777,1813.452c0,0-7.715,14.165-22.411,17.454c-9.256,2.073-17.165,6.941-22.064,13.732
				c-4.14,5.74-0.059,13.757,7.019,13.715l74.684-0.426c6.36-0.036,11.292-5.552,10.619-11.875
				c-0.587-5.529-1.207-11.97-1.486-16.908c-0.614-10.784-12.297-20.472-12.297-20.472s-10.252,5.884-14.205,6.576
				C1103.031,1816.755,1091.777,1813.452,1091.777,1813.452z"/>
			<path style="fill:#35488B;" d="M1162.004,1813.452c0,0-7.715,14.165-22.411,17.454c-9.258,2.073-17.165,6.941-22.064,13.732
				c-4.141,5.74-0.059,13.757,7.019,13.715l74.684-0.426c6.36-0.036,11.292-5.552,10.619-11.875
				c-0.587-5.529-1.207-11.97-1.488-16.908c-0.614-10.784-12.295-20.472-12.295-20.472s-10.252,5.884-14.205,6.576
				C1173.257,1816.755,1162.004,1813.452,1162.004,1813.452z"/>
			<path style="fill:#FFB27D;" d="M1077.543,1093.908c0,0-48.803,82.284-58.646,149.371c0,0,23.737,32.026,33.39,9.537
				C1061.943,1230.328,1131.234,1109.94,1077.543,1093.908z"/>
			<path style="fill:#ED7D2B;" d="M1086.835,947.846c0.525-0.871,22.363-35.401,63.183-42.291
				c33.071-5.58,64.023,17.782,69.109,50.932c5.111,33.313-0.101,76.476-54.45,92.025L1086.835,947.846z"/>
			<path style="fill:#FFB27D;" d="M1096.833,1096.28l61.503,36.534l16.235-43.24c0,0-7.819-15.828-9.893-41.063
				c-0.863-10.611-0.844-22.895,0.994-36.384l-53.48,23.226c0,0,0.93,4.866,1.308,11.987c0.395,7.692,0.135,18.014-2.659,27.656
				C1108.434,1083.276,1104.167,1091.053,1096.833,1096.28z"/>
			<path style="fill:#2C3A64;" d="M1238.187,1481.868c-5.74-65.732-14.31-152.15-19.7-187.624
				c-1.781-11.702-1.876-23.596-0.27-35.316l12.656-93.335l3.976-29.289c2.098-15.502-6.504-30.48-20.926-36.523
				c-13.148-5.485-22.785-6.757-39.353-10.208c-10.288,9.287-30.291,22.627-51.454,18.493
				c-15.901-3.117-19.058-10.984-18.201-20.111c-4.039,0.397-7.733,0.139-11.183,0.616c-13.333,1.807-24.821,9.212-32.115,19.78
				c0-0.008-0.011-0.047-0.011-0.047l-0.258,0.443c-1.144,1.695-2.186,3.463-3.106,5.31l-23.378,39.976
				c0,0,2.26,13.915,13.747,20.327c-11.486,126.499-24.786,412.131-14.059,415.787c69.484,23.707,192.774-9.269,209.469-25.218
				C1244.866,1564.12,1242.226,1528.107,1238.187,1481.868z"/>
			<path style="fill:#FFB93E;" d="M1086.323,1096.26c-36.012,28.841-48.103,101.508-43.376,150.972
				c9.023-22.464,8.448-55.768,17.19-91.131c8.5-34.383,32.232-61.183,32.232-61.183
				C1091.472,1094.918,1086.323,1096.26,1086.323,1096.26z"/>
			<path style="fill:#ED985F;" d="M1110.84,1074.997c29.502,1.087,53.838-26.485,53.838-26.485l-51.178-1.171
				C1113.895,1055.032,1113.635,1065.355,1110.84,1074.997z"/>
			<path style="fill:#FFB27D;" d="M1097.599,1057.68c0,0,57.76,19.248,80.998-26.179c25.079-49.025,3.421-87.283-16.37-91.029
				c-39.469-7.471-63.542,6.228-71.553,21.817C1082.662,977.878,1065.71,1047.348,1097.599,1057.68z"/>
			<path style="fill:#FFFFFF;" d="M1122.56,1032.862c0,0-2.843,5.903-18.125,1.515c0,0-12.829-3.68-10.917-10.436
				C1093.518,1023.94,1107.207,1021.861,1122.56,1032.862z"/>
			<path style="fill:#232E4F;" d="M1238.187,1481.868c-1.828-2.115-118.744-138.524-122.956-211.093
				c-4.231-73.142,58.656-126.582,58.656-126.582c25.058-1.654,43.566,6.551,56.987,21.401l-12.656,93.335
				c-1.606,11.719-1.511,23.614,0.27,35.316C1223.877,1329.718,1232.447,1416.137,1238.187,1481.868z"/>
			<path style="fill:#FFB93E;" d="M1192.262,1091.578c-55.793,12.861-70.793,105.054-45.165,175.629
				c19.02,52.377,77.671,77.326,77.671,77.326c6.368-7.162,1.451-23.265,1.451-23.265c-86.013-54.821-71.547-132.308-51.649-171.404
				c19.899-39.096,23.899-53.604,53.274-43.103C1224.171,1090.341,1192.262,1091.578,1192.262,1091.578z"/>
			<path style="fill:#ED7D2B;" d="M1138.069,945.864c0,0-5.476,54.187,45.931,73.389c20.44,7.635,31.081-75.128-11.63-91.653
				c-42.711-16.526-84.831,3.1-89.866,31.99c-5.035,28.89-1.201,34.913-1.201,34.913S1101.296,939.542,1138.069,945.864z"/>
			<path style="fill:#FFB27D;" d="M1169.281,1123.125c0,0-23.575,93.242-24.491,130.332c0,0-51.739,90.36-54.776,96.786
				c-3.039,6.428,18.676,15.211,18.676,15.211s64.907-69.221,77.419-98.312c12.514-29.093,56.896-123.684,39.134-151.92
				C1207.48,1086.988,1169.281,1123.125,1169.281,1123.125z"/>
			<path style="fill:#FFB27D;" d="M1018.897,1243.279c0,0-4.634,63.516,40.569,113.556c0,0,12.339-14.853,10.782-19.465
				c-1.557-4.609-19.248-75.404-32.17-85.474C1025.156,1241.827,1018.897,1243.279,1018.897,1243.279z"/>
			<path style="fill:#FFB27D;" d="M1090.013,1350.243c0,0-28.933-0.211-30.547,6.591c-1.616,6.801,7.437,28.089,28.597,20.673
				c21.158-7.418,20.625-12.054,20.625-12.054L1090.013,1350.243z"/>
			<path style="fill:#FFB27D;" d="M1070.249,1337.37c0,0,23.243,10.743,15.346,22.188c-7.897,11.448-23.688,4.602-26.128-2.724
				C1057.024,1349.51,1070.249,1337.37,1070.249,1337.37z"/>
			<path style="fill:#2C3A64;" d="M1152.261,1172.321c0,0,30.34,28.223,77.12,23.851c0,0,23.053-81.703-13.917-91.732
				C1178.498,1094.41,1147.949,1142.833,1152.261,1172.321z"/>
		</g>
		<g>
			<path style="fill:#233862;" d="M791.334,635.877c0,0,69.996,109.436,47.855,309.397
				c-6.911,62.421,211.934,161.487,211.934,161.487s16.434-12.859,9.393-35.906c0,0-121.476-121.247-133.822-136.133
				c-10.952-13.208-40.603-153.899-53.389-200.733C851.319,653.453,791.334,635.877,791.334,635.877z"/>
			<g>
				<path style="fill:#233862;" d="M470.205,1746.716c0,0-23.962,21.866-19.286,37.404c4.674,15.538,26.297,25.896,29.221,44.884
					c2.922,18.992,14.609,29.348,25.129,29.348c10.518,0,50.152,0,50.152,0s7.744-13.362-10.957-17.39
					c-18.703-4.028-25.753-26.345-24.585-47.059c1.169-20.717-1.752-48.339-1.752-48.339l-39.741-9.207L470.205,1746.716z"/>
				<path style="fill:#233862;" d="M764.168,1803.274c0,0-4.301,49.765,6.219,54.944l134.627-0.278c0,0,0-15.538-21.623-18.99
					c-21.625-3.452-59.612-16.113-66.04-44.308C810.922,1766.443,764.168,1803.274,764.168,1803.274z"/>
				<path style="fill:#FFB93E;" d="M877.83,1100.295c0,0-7.1,87.233-15.445,192.093c-11.346,142.441-24.986,317.408-26.335,350.554
					c-2.333,57.557-11.695,149.623-11.695,149.623s-22.196,21.873-66.625,12.655c0,0-39.586-131.427-50.896-270.487
					c-0.175-2.278-0.351-4.574-0.526-6.87c-10.52-141.561-26.877-439.651-26.877-439.651L877.83,1100.295z"/>
				<path style="fill:#E3A330;" d="M877.83,1100.295c0,0-7.1,87.233-15.445,192.093l-155.551,242.345
					c-0.175-2.278-0.351-4.574-0.526-6.87c-10.52-141.561-26.877-439.651-26.877-439.651L877.83,1100.295z"/>
				<path style="fill:#FFB93E;" d="M845.402,1110.656c0,0-127.987,315.922-212.143,464.389
					c-84.159,148.467-110.458,189.899-110.458,189.899s-48.213-18.99-52.596-31.938c0,0,32.179-286.621,88.539-356.491
					c31.845-39.482,69.253-157.963,71.008-199.395c1.752-41.432,11.394-123.436,11.394-123.436L845.402,1110.656z"/>
			</g>
			<path style="fill:#FFB27D;" d="M677.008,623.793c0,0,86.598,41.782,136.523,26.281c0,0-12.291-15.504-33.795-27.039
				c1.727-10.019,3.072-18.717,3.841-26.09c2.112-17.017,2.112-26.661,2.112-26.661l-33.41-26.276l-31.683-25.148
				C723.091,589.57,677.008,623.793,677.008,623.793z"/>
			<path style="fill:#2B478B;" d="M883.295,1107.5c-1.529,1.327-3.261,2.071-5.197,2.071c-18.81-0.382-73.534,10.013-119.797,5.286
				c-39.174-3.78-73.736-15.119-110.797-31.367c-4.995-2.271-16.334-8.324-16.132-13.613c0.203-6.053,0.765-14.557,1.529-25.539
				c1.552-21.6,3.737-52.27,4.433-88.632c0.517-26.957,0.225-57.04-1.732-88.903c-0.114-2.137-0.225-4.296-0.316-6.456
				c-0.562-11.678-0.833-23.448-0.833-34.946c-0.203-37.058,2.476-72.41,7.853-103.977c9.43-54.838,26.908-98.058,53.009-117.162
				c3.464-2.655,25.16,8.051,45.12,17.705c18.25,8.889,36.476,9.835,53.757,6.435l17.281,15.121
				c20.949,19.081,43.99,45.362,54.159,85.078c8.438,33.661,13.433,94.529,16.134,157.688c1.329,28.734,2.296,57.47,2.678,84.876
				v0.947c0.203,2.833,0.203,5.691,0.203,8.527C885.591,1050.773,884.647,1106.555,883.295,1107.5z"/>
			<path style="fill:#ED985F;" d="M720.019,545.897c0,0,21.889,39.893,63.558,51.048c2.112-17.017,2.112-26.661,2.112-26.661
				l-33.41-26.276L720.019,545.897z"/>
			<path style="fill:#FFB27D;" d="M800.921,569.133c0,0-82.611,13.515-90.367-37.272c-7.755-50.787-23.639-83.246,28.777-94.021
				c52.418-10.775,65.649,7.082,72.426,23.414C818.532,477.585,822.211,564.308,800.921,569.133z"/>
			<path style="fill:#ED7D2B;" d="M680.53,431.759c-0.751-0.86-2.48-1.554-6.331-1.763c0,0,3.077-1.925,7.193-2.025
				c0.803-5.355,3.652-14.828,12.864-17.131c0,0-4.95,2.64-5.598,8.329c10.67-10.957,33.535-18.935,96.847-13.936
				c83.44,6.586,55.941,60.008,45.137,66.377c-10.802,6.369-37.991-11.091-58.117-9.494c-20.128,1.597-23.955,30.68-30.782,34.669
				c-6.827,3.991-4.144-3.065-13.38-7.241c-9.239-4.176-10.117,11.132-7.448,21.086c2.667,9.954-10.026,23.082-10.026,23.082
				s0,0-12.825-13.815c-12.828-13.813-24.918-72.326-19.086-84.798C679.495,433.996,680.005,432.881,680.53,431.759z"/>
			<path style="fill:#FFB27D;" d="M1077.02,1079.371c0,0,10.567-4.737,16.882,2.065c6.315,6.803,21.071,11.492,19.803,15.048
				c-2.62,7.364-16.232-0.938-30.615,3.536C1078.055,1101.585,1062.455,1091.951,1077.02,1079.371z"/>
			<path style="fill:#233862;" d="M637.335,955.705c0.517-26.957,0.225-57.04-1.732-88.903c-0.114-2.137-0.225-4.296-0.316-6.456
				c7.853-38.906,19.734-73.422,37.217-74.549C672.504,785.797,724.595,867.658,637.335,955.705z"/>
			<path style="fill:#FFB27D;" d="M568.432,1096.87c0,0,4.342,42.213,9.107,50.195c4.763,7.985,25.047,33.501,33.688,38.508
				c8.641,5.006-5.277-33.62-3.516-41.136c1.759-7.516,7.111,13.715,10.918,14.216c3.809,0.501,2.829-18.61,2.965-25.564
				c0.136-6.956-18.528-24.124-25.109-38.933C589.904,1079.348,568.432,1096.87,568.432,1096.87z"/>
			<path style="fill:#2B478B;" d="M695.542,604.152c0,0-52.271,24.75-77.332,62.802c-38.874,59.022-83.936,274.135-84.768,294.055
				c-0.833,19.918,32.889,160.55,32.889,160.55s34.202-2.253,43.023-19.516c0,0-6.834-144.494-2.503-153.783
				c4.331-9.289,142.583-193.827,127.036-233.204C718.342,675.679,695.542,604.152,695.542,604.152z"/>
		</g>
		<path style="fill:#FFB27D;" d="M1245.986,1041.48c12.274,5.176,29.537,23.207,57.156,12.276
			c19.757-7.673,40.662-13.043,50.829-15.537c4.027-0.768,6.328-1.342,6.328-1.342l-10.933-31.84c0,0-0.382,0.192-1.341,0.384
			c-7.097,1.534-43.156,9.207-60.034,5.371c-18.988-4.41-50.828,18.413-50.828,18.413S1233.71,1036.493,1245.986,1041.48z"/>
	</g>
	<path style="fill:#2E3552;" d="M2050.864,1867.271H137.861c-1.675,0-3.046-1.371-3.046-3.046v-3.898
		c0-1.675,1.371-3.046,3.046-3.046h1913.003c1.676,0,3.047,1.371,3.047,3.047v3.897
		C2053.911,1865.9,2052.54,1867.271,2050.864,1867.271z"/>
	<g>
		<path style="fill:#D2E3FC;" d="M1168.222,342.573h-168.47c-22.134,0-40.245,18.11-40.245,40.245v63.735
			c0,10.114,3.79,19.381,10.009,26.471l-10.009,45.753l57.719-31.979h150.996c22.135,0,40.244-18.11,40.244-40.245v-63.735
			C1208.466,360.683,1190.357,342.573,1168.222,342.573z"/>
		<path style="fill:#B7D3F3;" d="M1171.394,391.133H996.739c-3.595,0-6.537-2.942-6.537-6.537l0,0c0-3.595,2.941-6.537,6.537-6.537
			h174.656c3.595,0,6.537,2.941,6.537,6.537l0,0C1177.931,388.191,1174.99,391.133,1171.394,391.133z"/>
		<path style="fill:#B7D3F3;" d="M1171.394,419.739H996.739c-3.595,0-6.537-2.941-6.537-6.537l0,0c0-3.595,2.941-6.537,6.537-6.537
			h174.656c3.595,0,6.537,2.941,6.537,6.537l0,0C1177.931,416.798,1174.99,419.739,1171.394,419.739z"/>
		<path style="fill:#B7D3F3;" d="M1171.394,447.272H996.739c-3.595,0-6.537-2.941-6.537-6.537l0,0c0-3.595,2.941-6.536,6.537-6.536
			h174.656c3.595,0,6.537,2.941,6.537,6.536l0,0C1177.931,444.331,1174.99,447.272,1171.394,447.272z"/>
	</g>
</g>
</svg>
